<?xml version="1.0" encoding="UTF-8" standalone="no"?>
<!-- Created with Inkscape (http://www.inkscape.org/) -->

<svg
   width="247.12347mm"
   height="111.48994mm"
   viewBox="0 0 247.12347 111.48994"
   version="1.1"
   id="svg1"
   inkscape:version="1.4.2 (f4327f4, 2025-05-13)"
   sodipodi:docname="fundoRio_otm-50.svg"
   xmlns:inkscape="http://www.inkscape.org/namespaces/inkscape"
   xmlns:sodipodi="http://sodipodi.sourceforge.net/DTD/sodipodi-0.dtd"
   xmlns="http://www.w3.org/2000/svg"
   xmlns:svg="http://www.w3.org/2000/svg">
  <sodipodi:namedview
     id="namedview1"
     pagecolor="#ffffff"
     bordercolor="#000000"
     borderopacity="0.25"
     inkscape:showpageshadow="2"
     inkscape:pageopacity="0.0"
     inkscape:pagecheckerboard="0"
     inkscape:deskcolor="#d1d1d1"
     inkscape:document-units="mm"
     inkscape:zoom="0.71891835"
     inkscape:cx="502.83874"
     inkscape:cy="187.08661"
     inkscape:window-width="1920"
     inkscape:window-height="1009"
     inkscape:window-x="-8"
     inkscape:window-y="-8"
     inkscape:window-maximized="1"
     inkscape:current-layer="layer1" />
  <defs
     id="defs1" />
  <g
     inkscape:label="Camada 1"
     inkscape:groupmode="layer"
     id="layer1"
     transform="translate(27.960837,-99.091517)">
    <path
       d="m 17.218089,210.54777 -45.178926,-0.0669 V 99.091517 l 123.495593,0.06694 123.494274,0.06668 0.0667,55.628643 0.0669,55.62864 -69.12319,0.0169 c -38.01745,0.01 -73.29011,0.0392 -78.383339,0.0661 -5.09323,0.027 -29.590471,0.0191 -54.438022,-0.0177 z m 46.093063,-1.28217 c 22.475031,-6.12193 32.874744,-10.91485 35.700229,-16.45311 2.803529,-5.49539 -7.145866,-10.50422 -26.1112,-13.14529 -13.10005,-1.8243 -20.800483,-2.48762 -49.398237,-4.25583 -13.327327,-0.82417 -18.1355995,-1.8407 -17.4281035,-3.68485 0.362744,-0.94509 4.6598405,-2.41988 8.2793405,-2.84136 3.246438,-0.37809 0.112977,-0.7149 -7.3302805,-0.78793 -5.585619,-0.055 -8.297598,-0.17542 -8.548952,-0.3802 -0.206375,-0.16484 -1.669521,-0.38577 -3.254375,-0.49107 -5.5406395,-0.36777 -6.1015565,-0.88821 -3.74941,-3.48774 1.521354,-1.68063 5.05116,-3.42397 7.95363896,-3.928 0.582084,-0.10107 1.476375,-0.44715 1.98437504,-0.76888 3.06414,-1.93516 5.250392,-1.97168 8.6000165,-0.14341 3.395662,1.85341 3.851804,2.05926 4.953,2.23573 0.541602,0.0865 1.315508,0.43207 1.719791,0.76809 0.404813,0.33602 1.033198,0.68686 1.397,0.78052 0.363802,0.0931 1.0668,0.52996 1.5621,0.97023 0.813859,0.7239 0.942975,0.76226 1.343554,0.39952 0.243946,-0.2204 0.80698,-0.40085 1.25148,-0.40085 0.585787,0 0.846402,-0.14552 0.946679,-0.52916 0.153193,-0.58605 0.820737,-0.64559 3.296708,-0.29263 l 1.389063,0.19764 v -0.74612 c 0,-0.70829 0.06085,-0.74639 1.190625,-0.74639 1.003035,0 1.190625,0.081 1.190625,0.51488 0,0.55721 2.614612,-0.70353 3.853392,-1.85791 0.300566,-0.27993 0.912812,-0.50906 1.361016,-0.50906 0.884238,0 7.318904,-2.98899 7.038446,-3.26945 -0.09366,-0.0937 -1.259417,-0.17013 -2.591065,-0.17013 -2.742141,0 -5.2832,-0.3974 -6.071658,-0.94985 -0.360892,-0.25242 -1.28561,-0.37307 -2.86385,-0.37307 -1.531938,0 -2.667794,-0.14314 -3.314436,-0.41777 -0.827352,-0.35137 -2.212181,-0.41275 -8.716433,-0.38603 l -7.732712,0.0317 -1.7838205,0.83476 c -2.155031,1.00859 -4.923896,1.14882 -15.933473,0.80724 -7.2363545,-0.22436 -7.5062295,-0.28971 -6.2732715,-1.524 l 0.669396,-0.66886 h -15.322021 v 56.35624 h 88.218698 z m 23.311115,-1.08744 5.535877,-1.77535 0.1651,-0.88 c 0.09075,-0.48419 0.09366,-1.23667 0.0066,-1.6727 -0.196056,-0.98002 -0.0026,-1.06706 3.778515,-1.69995 2.574396,-0.43074 4.476751,-0.42069 6.284911,0.0331 0.58738,0.1471 0.59796,0.10503 0.67257,-2.58498 l 0.0757,-2.7342 3.04271,-0.60828 c 2.31563,-0.46276 3.56103,-0.57415 5.21176,-0.4662 l 2.16879,0.14182 0.64426,-0.86043 c 2.59981,-3.47294 1.764,-6.5511 -2.51485,-9.26176 -4.68656,-2.96888 -23.437053,-7.25408 -36.834759,-8.41771 -1.61634,-0.14023 -4.605602,-0.42678 -6.642894,-0.63633 -7.646458,-0.78634 -28.850166,-2.24843 -40.368273,-2.78341 -10.66165,-0.4953 -15.773665,-1.54861 -15.531042,-3.2004 0.143934,-0.98214 -0.647171,-1.03664 -2.8945405,-0.20029 -4.829969,1.79811 -3.150658,2.69875 6.8130195,3.65257 5.325798,0.50985 6.939492,0.62177 21.156878,1.465 7.108296,0.42148 22.491171,1.60814 23.944792,1.84679 0.436562,0.0717 2.912533,0.37121 5.50201,0.66516 44.012909,4.99825 44.615099,18.30758 1.377156,30.43555 -2.182812,0.61251 -4.018491,1.15914 -4.079081,1.21523 -0.06059,0.0561 3.727979,0.10186 8.419306,0.10186 h 8.529638 z m 5.539052,0.36063 v -1.4142 l -2.182813,0.74084 c -1.200414,0.40746 -3.135312,1.03187 -4.299479,1.38747 l -2.116666,0.64638 4.299479,0.027 4.299479,0.027 z m 8.995831,-1.05833 v -2.47253 l -3.838044,-0.73025 c -4.745037,-0.90223 -4.579408,-0.95727 -4.465637,1.48616 0.04948,1.06733 0.0926,2.44634 0.09578,3.06493 l 0.0058,1.12448 h 8.202081 z m 9.525,-3.07287 v -5.54567 l -0.99218,-0.2659 c -1.43219,-0.38365 -5.7195,-1.0287 -5.95313,-0.89535 -0.10901,0.0622 -0.19844,1.10251 -0.19844,2.31192 v 2.19896 l 1.12448,0.28575 c 0.72443,0.18176 1.4523,0.35083 2.18281,0.50694 l 1.05834,0.22119 0.0741,3.36391 0.0741,3.36391 h 2.62996 z m 7.31891,4.68577 c -0.0733,-0.18204 -0.13335,-0.0331 -0.13335,0.33073 0,0.3638 0.0601,0.51276 0.13335,0.33073 0.0736,-0.18204 0.0736,-0.47969 0,-0.66146 z m 13.58317,-1.02315 v -1.88277 l -0.7276,0.19182 c -0.40005,0.10557 -1.16602,0.1823 -1.7018,0.17039 -0.67866,-0.0148 -0.99986,0.10319 -1.05833,0.38815 -0.05,0.24341 -1.05093,0.77311 -2.46539,1.30519 l -2.38125,0.89561 -1.71979,-0.39396 c -0.94589,-0.21643 -1.92802,-0.45773 -2.18281,-0.53658 -0.381,-0.11721 -0.46302,0.0243 -0.46302,0.80143 v 0.94376 h 12.69999 z m 2.91042,-0.60192 c 0,-2.80776 -0.18283,-2.59821 2.57969,-2.95804 1.36154,-0.1778 1.38906,-0.19897 1.38906,-1.0631 0,-0.97684 0.34608,-0.81227 -4.03489,-1.91823 l -2.05053,-0.51752 v 8.94185 h 2.11667 z m 1.32292,1.17766 c 0,-0.71914 -0.11906,-1.38113 -0.26459,-1.47082 -0.16404,-0.1016 -0.26458,0.39423 -0.26458,1.30731 0,0.80883 0.11906,1.47081 0.26458,1.47081 0.14553,0 0.26459,-0.58816 0.26459,-1.3073 z m 1.32291,0.11668 c 0,-0.88186 -0.10292,-1.19063 -0.39687,-1.19063 -0.29395,0 -0.39688,0.30877 -0.39688,1.19063 0,0.88186 0.10293,1.19062 0.39688,1.19062 0.29395,0 0.39687,-0.30876 0.39687,-1.19062 z m 1.05834,0.13229 c 0,-0.58208 -0.11906,-1.05833 -0.26459,-1.05833 -0.14552,0 -0.26458,0.47625 -0.26458,1.05833 0,0.58208 0.11906,1.05833 0.26458,1.05833 0.14553,0 0.26459,-0.47625 0.26459,-1.05833 z m 1.32291,-0.55933 c 0,-0.12885 -0.17859,-0.23442 -0.39687,-0.23442 -0.28258,0 -0.39635,0.28575 -0.39529,0.99219 l 0.002,0.99219 0.39529,-0.75777 c 0.21748,-0.41698 0.39528,-0.86334 0.39528,-0.99219 z m 0.98055,-0.036 c -0.0632,-0.32756 -0.11483,-0.0595 -0.11483,0.59531 0,0.65484 0.0516,0.9226 0.11483,0.59531 0.063,-0.32755 0.063,-0.86333 0,-1.19062 z m 2.72362,-1.11945 v -2.77284 l -0.7276,-0.16007 c -0.40005,-0.0881 -1.28799,-0.3138 -1.97274,-0.50191 -1.34038,-0.36804 -1.53299,-0.31459 -1.53299,0.42597 0,0.30824 0.26061,0.53817 0.7276,0.64215 1.7534,0.39026 1.65365,0.22251 1.65365,2.77627 v 2.36352 h 1.85208 z m 13.49375,2.13968 c 0,-0.60378 -0.0503,-0.62177 -1.07632,-0.39158 -0.66966,0.15081 -1.4441,0.14473 -2.05052,-0.0153 -0.6149,-0.16245 -1.65735,-0.16748 -2.82628,-0.014 -1.01865,0.13388 -1.94152,0.24712 -2.05052,0.25188 -0.10901,0.005 -0.19844,0.18733 -0.19844,0.40561 0,0.33576 0.63209,0.39687 4.10104,0.39687 h 4.10104 z m 3.43958,-2.79373 v -3.42715 l -0.99218,-0.27543 c -1.72244,-0.47863 -1.65365,-0.62124 -1.65365,3.42556 v 3.70416 h 2.64583 z m 4.36563,2.6617 c 0,-0.70537 -1.22423,-1.7899 -1.69333,-1.49992 -0.16008,0.099 -0.29105,0.65617 -0.29105,1.23852 v 1.05886 l 0.99219,-0.082 c 0.8472,-0.0704 0.99219,-0.17463 0.99219,-0.71517 z m 5.51709,-0.62362 c 0.4064,-3.38323 0.16457,-4.81409 -0.90752,-5.36839 -1.5584,-0.80619 -1.58988,-0.74137 -1.54226,3.18558 l 0.0434,3.57187 h 2.23943 z m 3.55865,0.002 c -0.12171,-2.11349 -1.00595,-2.19075 -1.00595,-0.0878 0,1.31075 0.0603,1.47452 0.54293,1.47452 0.48868,0 0.53498,-0.13864 0.46302,-1.38641 z m 8.25447,0.75115 c 0,-0.46831 -0.20902,-0.70855 -0.79375,-0.91228 -0.79031,-0.27569 -0.8599,-0.22542 -0.8599,0.62177 0,0.83106 0.0881,0.92604 0.8599,0.92604 0.66146,0 0.79375,-0.10583 0.79375,-0.63553 z m 4.23333,-4.62782 c 0,-5.88645 0.16457,-5.43931 -2.11349,-5.74146 l -1.32609,-0.17595 -0.0183,4.86304 c -0.0101,2.67441 -0.0614,5.19007 -0.1143,5.59012 l -0.096,0.7276 h 3.66818 z m 4.96702,0.12329 c 0.055,-3.82931 -0.007,-5.05804 -0.26458,-5.22155 -0.94721,-0.60087 -0.99827,-0.33946 -0.99827,5.08847 v 5.31019 l 0.59531,-0.0847 c 0.59055,-0.0839 0.59584,-0.12541 0.66754,-5.09244 z m 5.15409,-2.33045 c -0.0704,-8.06502 -0.0212,-7.79912 -1.456,-7.85679 -0.43075,-0.0172 -0.46303,0.51593 -0.46303,7.65439 v 7.67291 h 0.99219 l 0.99219,2.7e-4 z m 3.37264,0.0429 c 0,-6.93155 -0.031,-7.42183 -0.46302,-7.33875 -0.77655,0.14949 -0.84614,14.76639 -0.0704,14.76639 0.52202,0 0.5334,-0.15689 0.5334,-7.42764 z m 5.95313,2.77918 c 0,-3.30809 -0.0839,-4.45929 -0.33073,-4.54343 -0.35296,-0.12012 -0.51065,8.65955 -0.1614,9.00827 0.41328,0.41328 0.49213,-0.30215 0.49213,-4.46484 z m 1.39567,0.37068 c -0.0534,-3.13372 -0.16139,-4.30715 -0.40349,-4.38758 -0.25558,-0.0849 -0.33073,0.88529 -0.33073,4.27778 0,3.75523 0.0582,4.38758 0.40349,4.38758 0.34793,0 0.39344,-0.58896 0.33073,-4.27778 z m 9.12125,3.60998 c 0.15081,-0.78793 0.12991,-0.80434 -1.32265,-1.04484 l -1.12448,-0.18601 v 0.94933 c 0,1.2655 2.21059,1.51977 2.44739,0.28152 z m 2.31537,0.44026 c 0,-0.12541 -0.29766,-0.17118 -0.66146,-0.1016 -0.3638,0.0696 -0.66146,0.17198 -0.66146,0.22807 0,0.0556 0.29766,0.10134 0.66146,0.10134 0.3638,0 0.66146,-0.10266 0.66146,-0.22781 z m -95.25,-7.04321 c 0,-5.67742 -5.3e-4,-5.68351 -0.59531,-5.81897 -4.45717,-1.01521 -5.19748,-1.12316 -5.3303,-0.77682 -0.1569,0.40878 -0.0397,0.49821 0.96467,0.73819 l 0.72761,0.17409 v 10.29388 l 1.52135,0.42333 c 0.83688,0.2331 1.64042,0.46514 1.78594,0.51594 0.90699,0.31591 0.92604,0.20188 0.92604,-5.54964 z m 26.13289,-0.35454 -0.0714,-5.71235 -1.05834,-0.20902 c -0.58208,-0.11509 -1.32635,-0.27146 -1.65364,-0.34766 -0.59082,-0.13758 -0.59532,-0.11589 -0.59532,2.90935 0,1.67614 0.10928,3.04774 0.24289,3.04774 0.13362,0 0.43127,0.0722 0.66146,0.1606 0.36274,0.13917 0.41857,-0.16034 0.41857,-2.24896 0,-1.43007 0.10769,-2.40955 0.26458,-2.40955 0.1577,0 0.26459,1.00779 0.26459,2.49422 0,2.09444 0.0691,2.50772 0.43127,2.57969 0.37068,0.0733 0.42465,0.48683 0.38232,2.92708 -0.0431,2.4892 0.003,2.82178 0.36751,2.68182 0.36433,-0.13997 0.40746,-0.87577 0.34528,-5.87269 z m 5.35252,0.23284 c 0,-3.193 -0.0894,-5.85523 -0.19843,-5.91661 -0.10901,-0.0611 -0.52599,-0.18944 -0.92604,-0.28522 l -0.72761,-0.17384 v 5.93884 c 0,6.41879 -0.068,6.11478 1.38906,6.21136 0.42783,0.0283 0.46302,-0.41037 0.46302,-5.77453 z m 27.18991,4.5966 c -0.29607,-0.29633 -1.78991,-0.41989 -1.78991,-0.14816 0,0.49821 1.69942,1.0914 1.80923,0.63156 0.0495,-0.20585 0.0407,-0.42334 -0.019,-0.4834 z m 36.79481,0.54769 c 0.35481,-0.35507 -0.40561,-0.68792 -1.24275,-0.54451 -2.45401,0.42121 -2.5908,0.4691 -2.02009,0.70829 0.47863,0.20029 3.02657,0.0725 3.26284,-0.16405 z m -66.63055,-5.36575 v -5.49724 l -1.02711,0.0979 c -1.06971,0.10213 -1.28588,0.91387 -0.38603,1.45071 0.19526,0.11641 0.35983,0.59265 0.36645,1.05832 0.006,0.46567 0.18309,1.32292 0.39291,1.905 0.44741,1.24196 0.52731,4.63021 0.109,4.63021 -0.15398,0 -0.20637,-0.11906 -0.11668,-0.26458 0.09,-0.14552 0.0373,-0.26459 -0.11668,-0.26459 -0.3548,0 -0.36512,0.4453 -0.0156,0.66146 0.45376,0.28046 0.32147,1.26894 -0.14605,1.08956 -0.24977,-0.0958 -0.3429,-0.0479 -0.23786,0.12223 0.0952,0.15346 0.33946,0.21564 0.54293,0.13759 0.20372,-0.0783 0.37015,-0.0267 0.37015,0.11403 0,0.14102 0.0595,0.25638 0.13229,0.25638 0.0728,0 0.13229,-2.47385 0.13229,-5.49698 z m 14.35074,4.90167 c -0.60749,-0.19473 -1.03823,-0.19209 -1.45521,0.009 -0.4998,0.2413 -0.36513,0.28442 0.8628,0.27675 1.39118,-0.009 1.41711,-0.0212 0.59241,-0.28575 z m -28.10907,-0.45217 c 0,-0.48842 -0.52229,-0.73263 -2.38919,-1.1176 -0.89667,-0.18468 -0.53366,0.48207 0.56092,1.03028 1.45415,0.7284 1.82827,0.74613 1.82827,0.0873 z m 76.79531,0.24024 0.99219,-0.27543 v -6.99903 c 0,-3.84968 -0.0894,-6.99954 -0.19844,-7.00007 -0.10901,-5.3e-4 -1.27,-0.17701 -2.57969,-0.39212 -1.30968,-0.21537 -2.53021,-0.39343 -2.71198,-0.39608 -0.23865,-0.003 -0.33073,0.61172 -0.33073,2.20742 v 2.21192 l 1.65365,0.23548 1.65365,0.23548 0.0717,5.22551 c 0.0397,2.87417 0.15875,5.22473 0.26458,5.22394 0.1061,-8e-4 0.63923,-0.12541 1.18507,-0.27702 z m -37.2401,-0.51541 0.79375,-0.20188 -0.92605,-0.0571 c -1.51182,-0.0926 -3.01545,0.0275 -3.43958,0.27543 -0.49345,0.2884 2.42623,0.27517 3.57188,-0.0164 z m -10.71563,-2.08439 c 0,-2.35849 0.15055,-2.59662 1.72323,-2.72441 l 1.0549,-0.086 0.0746,-3.11811 0.0746,-3.11785 -1.13294,-0.51435 c -0.6231,-0.28284 -1.43061,-0.51673 -1.79441,-0.52017 l -0.66146,-0.006 0.0757,6.08568 c 0.0458,3.67771 0.17648,6.08568 0.33073,6.08568 0.14208,0 0.25506,-0.92287 0.25506,-2.08439 z m 14.81667,1.44066 c 0,-0.42466 -0.25109,-0.51805 -2.51354,-0.9361 -0.87313,-0.16113 -1.86505,-0.35269 -2.20398,-0.42545 -0.47731,-0.10213 -0.59717,-0.0296 -0.52917,0.32068 0.0643,0.3339 0.64188,0.56938 2.20398,0.89852 2.75828,0.58103 3.04271,0.59452 3.04271,0.14235 z m -52.48937,-5.41073 c 0.0865,-2.93846 0.0833,-5.73537 -0.007,-6.21559 l -0.16377,-0.87312 -4.03093,-0.57256 c -5.08873,-0.72258 -4.69238,-0.75962 -4.69238,0.44079 0,0.95171 0.0437,1.00674 0.7276,0.91546 0.40005,-0.0532 2.15635,0.12171 3.9026,0.38894 l 3.175,0.48551 0.072,5.26732 c 0.0511,3.742 0.16378,5.32448 0.38894,5.46365 0.47545,0.29369 0.45984,0.42545 0.62785,-5.30014 z m 9.70148,4.81092 c -1.42346,-0.41963 -2.8993,-0.25929 -1.7944,0.195 0.29104,0.11959 1.12448,0.21643 1.85208,0.21484 l 1.32292,-0.003 z m 42.78789,-0.73343 c 0,-0.2487 -0.54954,-0.54186 -1.52136,-0.81174 -1.63459,-0.45349 -2.57122,-0.75062 -3.30729,-1.04907 -0.36618,-0.14817 -0.46302,-0.0519 -0.46302,0.46196 0,0.62151 1.42134,1.11072 5.09323,1.75366 0.10901,0.019 0.19844,-0.14049 0.19844,-0.35481 z m -78.11162,-0.57388 c 1.20412,-0.23892 2.14551,-0.47836 2.0918,-0.53207 -0.54583,-0.54584 -6.535208,-1.17899 -8.298656,-0.87736 -2.683933,0.45905 -2.610115,0.63764 0.516467,1.24883 3.461809,0.67654 3.136899,0.66754 5.690389,0.1606 z m 41.43243,-0.58737 c 2.49978,-0.78052 0.31089,-1.16629 -2.89798,-0.51065 l -1.56554,0.31962 1.45521,0.31221 c 0.80036,0.17145 1.45521,0.32332 1.45521,0.33761 0,0.0143 0.69876,-0.19236 1.5531,-0.45906 z m 36.67919,-0.56092 c 0,-0.35533 -0.23442,-0.57758 -0.72761,-0.68977 -0.40005,-0.091 -1.64041,-0.39105 -2.75616,-0.66648 -2.42888,-0.59981 -2.33707,-0.59532 -2.33707,-0.11959 0,0.51964 3.10621,1.60866 5.6224,1.97114 0.10901,0.0159 0.19844,-0.2069 0.19844,-0.4953 z m 28.04186,-0.99721 c 0.002,-0.32729 -0.11509,-0.59532 -0.26061,-0.59532 -0.14552,0 -0.26273,0.44662 -0.26062,0.99219 0.003,0.73819 0.0699,0.89059 0.26062,0.59531 0.14102,-0.21828 0.25823,-0.66489 0.26061,-0.99218 z m 1.59147,-0.0662 c 0,-0.7276 -0.11906,-1.32292 -0.26458,-1.32292 -0.29237,0 -0.34608,1.12395 -0.0979,2.05052 0.25003,0.93293 0.36248,0.70724 0.36248,-0.7276 z m -37.83542,0.81227 c 0.64426,-0.18838 0.63818,-0.1987 -0.22833,-0.3982 -1.14909,-0.26432 -4.49739,0.073 -3.97933,0.40111 0.43735,0.27702 3.25702,0.27517 4.20766,-0.003 z m -11.21568,-0.20505 c 1.20491,-0.17383 1.23931,-0.19897 0.50006,-0.36565 -1.88066,-0.42413 -5.18107,-0.13309 -3.57188,0.31511 0.91811,0.25586 1.57322,0.2667 3.07182,0.0505 z m 50.37402,-1.13639 c 0,-0.7276 -0.0979,-1.32291 -0.21723,-1.32291 -0.11959,0 -0.24447,0.59531 -0.27781,1.32291 -0.0357,0.78555 0.0524,1.32292 0.21749,1.32292 0.15663,0 0.27755,-0.57573 0.27755,-1.32292 z m -71.32241,0.12727 c 1.15491,-0.22093 2.13519,-0.43762 2.17911,-0.48128 0.54584,-0.54583 -5.20674,-0.98028 -7.26387,-0.54874 l -2.29526,0.48154 1.71423,0.44979 c 2.19552,0.57573 3.09192,0.59134 5.66579,0.0987 z m 3.51737,0.24209 c -0.0878,-0.0878 -0.31617,-0.0974 -0.5072,-0.0212 -0.21088,0.0847 -0.14817,0.14737 0.16007,0.16007 0.27887,0.0114 0.43497,-0.0511 0.34713,-0.13891 z m 20.18004,-4.83843 V 191.754 l -1.06363,-0.42545 c -1.93807,-0.77549 -1.84679,-1.00832 -1.84679,4.70747 v 5.13291 l 0.99219,0.26353 c 2.06137,0.54768 1.91823,0.89693 1.91823,-4.67995 z m -47.17971,4.15475 c -0.0847,-0.21087 -0.14711,-0.14817 -0.15981,0.16007 -0.0114,0.27887 0.0511,0.43498 0.13891,0.34714 0.0878,-0.0878 0.0974,-0.31618 0.0212,-0.50721 z m 63.84846,0.0823 c 0,-0.41089 -0.4445,-0.59901 -2.57969,-1.0922 -1.4187,-0.32781 -2.72865,-0.65272 -2.91042,-0.72231 -0.1987,-0.0762 -0.33073,0.0915 -0.33073,0.42069 0,0.40957 0.24924,0.61251 0.99219,0.80724 0.81598,0.21484 1.63195,0.43074 2.4474,0.6477 2.0103,0.53526 2.38125,0.52573 2.38125,-0.0609 z m -63.86883,-3.1349 c -0.30268,-0.30295 -1.98702,0.21563 -1.85102,0.56964 0.0783,0.20373 0.35798,0.3003 0.64955,0.22411 0.35163,-0.0921 0.51197,10e-4 0.51197,0.29738 0,1.25095 0.66198,1.49305 0.74348,0.272 0.045,-0.67522 0.0206,-1.28852 -0.054,-1.3634 z m 88.95635,1.84361 c 0.0879,-0.6141 -0.51064,-0.98055 -2.13492,-1.30677 -1.14115,-0.22913 -0.96546,0.73553 0.26459,1.45308 1.19141,0.6948 1.75683,0.65088 1.8706,-0.14631 z m -62.39377,-1.08982 c 0,-1.64914 -0.36698,-2.26906 -1.24407,-2.10211 -0.71306,0.13599 -0.85593,3.29141 -0.15717,3.47265 1.32213,0.34317 1.40124,0.26591 1.40124,-1.37054 z m 0.72099,-0.62283 c -0.059,-0.47545 -0.10848,-0.15028 -0.1098,0.72284 -0.002,0.87313 0.0466,1.26206 0.10715,0.86466 0.0603,-0.39767 0.0614,-1.11204 0.003,-1.5875 z m 63.96963,1.9341 c 0.52123,-0.20372 0.52097,-0.20955 -0.0291,-0.38443 -0.61833,-0.19659 -1.42611,0.0254 -1.42611,0.39211 0,0.28284 0.72179,0.27887 1.45521,-0.008 z m -70.90833,-0.52863 1.32292,-0.15346 0.0743,-2.93872 0.0746,-2.93873 -1.39753,-0.16775 c -0.76835,-0.0926 -1.84362,-0.16907 -2.38945,-0.17012 l -0.99219,-0.002 v 6.93816 l 0.99219,-0.2069 c 0.54583,-0.11378 1.5875,-0.2757 2.3151,-0.3601 z m 43.35039,-0.55483 c -0.31036,-0.29633 -5.16969,-1.31763 -5.4483,-1.14565 -0.60378,0.37307 0.21246,0.80196 2.73156,1.43536 2.68049,0.6739 3.62162,0.57336 2.71674,-0.28971 z m 10.0293,-0.1823 c -0.32756,-0.063 -0.86334,-0.063 -1.19063,0 -0.32755,0.0632 -0.0595,0.11483 0.59531,0.11483 0.65485,0 0.92261,-0.0516 0.59532,-0.11483 z m -3.91689,-0.31644 c 0.63843,-0.24977 -0.22913,-0.54557 -1.61767,-0.55139 -1.35334,-0.006 -1.98622,0.33946 -1.01388,0.55298 1.08744,0.23892 2.01824,0.23812 2.63155,-0.002 z m 22.18055,-0.68712 c 0.57361,-0.0916 0.92921,-0.27305 0.83476,-0.42598 -0.0908,-0.14658 -0.48102,-0.20849 -0.86731,-0.13706 -0.38629,0.0714 -1.5359,0.28073 -2.55455,0.46541 -1.56051,0.2831 -1.7272,0.36036 -1.05833,0.49291 0.43656,0.0865 1.21046,0.0688 1.71979,-0.0394 0.50932,-0.10821 1.37583,-0.26828 1.92564,-0.35586 z m -95.05897,-0.1614 1.4552,-0.32623 -0.92604,-0.18389 c -4.30794,-0.85486 -6.87916,-0.87047 -9.39271,-0.0558 -2.19339,0.71068 5.90815,1.22794 8.86355,0.56595 z m 68.08893,-0.0257 c 0.0839,-0.3212 0.12753,-0.59796 0.0968,-0.61489 -0.25533,-0.14235 -5.30887,-1.18269 -5.74517,-1.18269 -1.8415,0 -0.4355,1.42055 1.85314,1.87219 3.19961,0.63183 3.61263,0.62363 3.79519,-0.0746 z m 7.31731,-2.9882 c 0,-2.68103 -0.0825,-3.57188 -0.33072,-3.57188 -0.26062,0 -0.41461,5.29299 -0.20638,7.07761 0.17886,1.52902 0.5371,-0.81016 0.5371,-3.50573 z m 3.14458,0.7276 c -0.0238,-2.23308 -0.0775,-2.61673 -0.24924,-1.78594 -0.31247,1.51025 -0.30215,4.63021 0.0151,4.63021 0.16193,0 0.25268,-1.1041 0.23416,-2.84427 z m -6.78789,1.87854 c 0.28628,0.0749 0.46831,-0.0241 0.46831,-0.25479 0,-0.25083 -0.19923,-0.33602 -0.59531,-0.25506 -0.32755,0.0672 -1.04193,0.19394 -1.5875,0.28178 -0.54583,0.0876 -0.99219,0.26035 -0.99219,0.38391 0,0.12356 0.50351,0.11113 1.11919,-0.027 0.61542,-0.13837 1.3298,-0.19632 1.5875,-0.12885 z m -9.18898,-2.62308 1.05834,-0.29527 v -8.11477 l -1.45521,-0.33946 c -0.80037,-0.18679 -1.79229,-0.34448 -2.20451,-0.35083 l -0.74904,-0.0111 0.10213,3.87244 0.10213,3.8727 0.91176,0.29448 0.91149,0.29475 -0.0384,1.85208 c -0.0339,1.64703 -0.0193,1.70657 0.13229,0.53631 0.16404,-1.26338 0.21299,-1.32768 1.22899,-1.61131 z m 11.50938,-1.30598 v -4.10104 h -2.39792 l 0.0744,3.10885 c 0.072,2.99667 0.096,3.11203 0.66992,3.19352 0.48525,0.0688 0.59531,0.25215 0.59531,0.99219 0,0.73105 0.10293,0.90752 0.52917,0.90752 0.50641,0 0.52917,-0.17647 0.52917,-4.10104 z m 8.73125,3.20331 c 0,-0.55404 -0.15187,-0.95594 -0.39688,-1.05013 -0.42068,-0.1614 -0.55377,0.70168 -0.23627,1.52929 0.27781,0.72443 0.63315,0.45561 0.63315,-0.47916 z m 11.30035,0.15716 c 0.20373,-0.12964 0.34793,-1.11389 0.39688,-2.70801 l 0.0767,-2.50454 1.13665,-0.39291 c 1.81954,-0.62891 1.6076,-2.37146 -0.3429,-2.82231 -2.73024,-0.63129 -2.51355,-0.98795 -2.51355,4.14126 0,4.73445 0.0844,5.0247 1.24619,4.28625 z m -92.47981,-0.61488 c 0.0651,-0.4326 0.45032,-0.67363 1.67217,-1.04722 l 1.5875,-0.48525 v -2.80061 l 1.12448,-0.24924 c 1.56712,-0.3474 1.79387,-2.52307 0.26458,-2.5363 -0.48392,-0.004 -1.55416,-0.40481 -2.4474,-0.91651 -0.87312,-0.50007 -3.284,-1.74308 -5.35781,-2.76225 l -3.77031,-1.85315 v -2.32436 l -2.4474,0.12435 c -2.18757,0.11113 -5.93672,-0.33999 -9.392705,-1.13056 -2.348971,-0.5371 0.111125,0.45508 2.910415,1.17396 13.5771,3.48615 18.60021,8.36982 14.34571,13.94777 -0.7784,1.02023 -0.78793,1.08268 -0.1905,1.23878 1.11469,0.29104 1.6174,0.17912 1.70127,-0.37941 z m 28.65967,0.29712 c -0.09,-0.14552 -0.28258,-0.26458 -0.4281,-0.26458 -0.14552,0 -0.19103,0.11906 -0.10107,0.26458 0.09,0.14553 0.28257,0.26459 0.4281,0.26459 0.14552,0 0.19102,-0.11906 0.10107,-0.26459 z m -19.84375,-0.3765 1.05833,-0.33602 -1.05833,-0.23892 c -1.33641,-0.30215 -4.77573,-0.29818 -5.82084,0.006 -0.74083,0.2159 -0.67918,0.25268 0.92605,0.55034 2.27224,0.42121 3.60891,0.42598 4.89479,0.0183 z m 24.87083,-0.0299 c -0.43656,-0.20002 -1.32953,-0.35639 -1.98438,-0.34766 l -1.19062,0.0159 1.05833,0.34872 c 0.58209,0.19182 1.47505,0.34819 1.98438,0.34766 l 0.92604,-0.001 z m 35.18958,0.15664 0.79375,-0.18706 -1.19062,-0.32782 c -2.69558,-0.74163 -3.08928,-0.82021 -4.13412,-0.82127 -2.85168,-0.004 -3.02604,0.33311 -0.49609,0.95885 2.46168,0.60854 3.66289,0.69903 5.02708,0.3773 z m -26.9875,-0.59849 1.05834,-0.34237 -1.94972,-0.0783 c -2.33362,-0.0939 -5.23293,0.41645 -4.40028,0.77443 0.694,0.29845 3.94758,0.081 5.29166,-0.35374 z m -7.80521,-5.59144 v -5.38163 l -0.69506,-0.3167 c -0.38232,-0.1741 -1.21576,-0.38815 -1.85208,-0.47546 l -1.15702,-0.15848 v 11.48582 l 0.59531,-0.0847 c 0.5887,-0.0833 0.59611,-0.13679 0.66754,-4.78075 0.0635,-4.13809 0.12356,-4.69636 0.5043,-4.69636 0.38894,0 0.41592,0.45985 0.27226,4.64397 -0.15822,4.60586 -0.15479,4.64555 0.42174,4.87786 1.26127,0.508 1.24301,0.5834 1.24301,-5.11361 z m -8.46666,4.15845 c 0,-0.78845 -0.0653,-0.90434 -0.36777,-0.65325 -0.29104,0.2413 -0.3048,0.44238 -0.0662,0.95647 0.39661,0.85566 0.43392,0.82973 0.43392,-0.30322 z m 3.89361,-1.0922 c -0.0606,-0.40005 -0.11007,-0.0728 -0.11007,0.72761 0,0.80036 0.0495,1.12792 0.11007,0.7276 0.0608,-0.40005 0.0608,-1.05489 0,-1.45521 z m 39.69252,-1.5875 c -0.0545,-0.69109 -0.0992,-0.12567 -0.0992,1.25678 0,1.38244 0.0447,1.94786 0.0992,1.25677 0.0545,-0.6911 0.0545,-1.82245 0,-2.51355 z m 15.87342,3.47822 c -0.0879,-0.0878 -0.31618,-0.0974 -0.50721,-0.0212 -0.21087,0.0847 -0.14817,0.14737 0.16007,0.16007 0.27887,0.0114 0.43498,-0.0511 0.34714,-0.13891 z m -28.80519,-0.52176 c 1.76212,-0.23363 1.72323,-0.52837 -0.11959,-0.91096 -1.46183,-0.30348 -4.87019,0.0781 -4.87019,0.54504 0,0.27623 2.16614,0.74956 2.93952,0.64214 0.37968,-0.0526 1.30255,-0.177 2.05052,-0.27622 z m 26.39007,0.16536 c 0.42174,-0.13837 1.28508,-0.38444 1.91823,-0.54663 1.44118,-0.36909 1.31498,-0.49609 -0.79243,-0.79745 -2.4339,-0.34819 -6.33042,0.75935 -4.27223,1.21444 0.40614,0.0894 0.85752,0.20267 1.00304,0.25135 0.52335,0.17463 1.39038,0.12541 2.14312,-0.12171 z m -43.08766,-0.17991 c 0.86783,-0.23231 0.94747,-8.29972 0.0817,-8.29972 -0.28257,0 -0.58737,-0.11906 -0.67706,-0.26458 -0.39794,-0.644 -0.52917,-0.10134 -0.52758,2.18308 0.003,4.17142 0.12223,6.54843 0.32914,6.54446 0.10901,-0.002 0.46619,-0.0754 0.79375,-0.16298 z m 28.58532,-2.14524 c -0.11748,-3.55177 -1.00251,-3.63009 -1.00251,-0.0884 0,2.23943 0.0362,2.40056 0.53949,2.40056 0.50747,0 0.53498,-0.13679 0.46302,-2.31219 z m 10.44072,1.15014 c 0.39185,-0.29739 0.46302,-0.80116 0.46302,-3.28057 0,-2.83607 0.0188,-2.93158 0.59531,-3.0136 0.84588,-0.12012 1.60338,-13.04026 0.79375,-13.53609 -0.10927,-0.0669 -0.87947,-0.20637 -1.71185,-0.30956 l -1.51368,-0.18838 -0.0741,7.86871 c -0.059,6.27988 -0.004,7.89516 0.27147,8.00073 0.1897,0.0728 0.32543,0.38497 0.30162,0.69374 -0.10848,1.38747 0.0333,4.13253 0.21299,4.12485 0.10901,-0.005 0.40667,-0.16669 0.66146,-0.35983 z m -28.9896,-0.47493 c -0.0847,-0.21114 -0.14711,-0.14843 -0.15981,0.15981 -0.0114,0.27887 0.0511,0.43498 0.13891,0.34713 0.0878,-0.0878 0.0974,-0.31617 0.0212,-0.5072 z m -34.73318,-0.44635 c 1.55787,-0.48604 1.56025,-0.48842 0.66146,-0.64347 -3.50547,-0.60536 -6.05102,-0.77814 -7.19931,-0.48895 -0.66675,0.16801 -1.54702,0.31327 -1.95527,0.32332 -1.49014,0.0357 0.22542,0.50404 3.2258,0.88054 3.82825,0.48022 3.48535,0.48498 5.26732,-0.0714 z m 67.42695,0.0429 1.52135,-0.1397 v -3.54383 l -1.91823,-0.44873 c -1.05489,-0.24686 -2.00766,-0.44715 -2.11666,-0.4453 -0.10901,0.002 -0.19844,1.14829 -0.19844,2.54794 0,2.51778 0.006,2.54238 0.59531,2.35691 0.32755,-0.10319 1.28005,-0.2503 2.11667,-0.32729 z m -58.40677,-0.0762 c 0.33946,-0.14579 -0.5379,-0.23416 -2.4474,-0.24606 -1.82033,-0.0114 -2.97656,0.0841 -2.97656,0.24606 0,0.32491 4.66778,0.32491 5.42396,0 z m 29.4296,0.10477 c -0.0881,-0.0878 -0.31644,-0.0974 -0.50747,-0.0212 -0.21087,0.0847 -0.14817,0.14738 0.16007,0.16008 0.27887,0.0114 0.43498,-0.0511 0.34714,-0.13891 z m 47.89488,-0.5027 c 0.67018,-0.13494 0.85989,-0.30719 0.85989,-0.78052 0,-0.91626 -1.06045,-0.9914 -4.24206,-0.30163 l -2.7694,0.6006 1.45521,0.29766 c 0.80037,0.16404 1.8124,0.34237 2.24896,0.39688 0.80962,0.1008 0.94615,0.0889 2.4474,-0.21326 z m -47.82344,-0.26352 c 0,-0.21829 -0.0468,-0.39688 -0.10398,-0.39688 -0.0572,0 -0.17251,0.17859 -0.25638,0.39688 -0.0836,0.21828 -0.037,0.39687 0.10398,0.39687 0.14102,0 0.25638,-0.17859 0.25638,-0.39687 z m 31.40763,-1.25677 c -0.0632,-0.32756 -0.11483,-0.0595 -0.11483,0.59531 0,0.65484 0.0516,0.9226 0.11483,0.59531 0.063,-0.32755 0.063,-0.86334 0,-1.19062 z m -62.36388,0.33072 c 0,-0.69797 -0.0918,-0.79375 -0.76068,-0.79375 -0.41831,0 -1.13268,-0.0743 -1.5875,-0.16536 -0.81042,-0.16219 -1.27159,0.95541 -0.65035,1.57639 0.64532,0.64558 2.99853,0.16086 2.99853,-0.61728 z m 7.2427,-2.44739 c 0.0968,-1.7825 0.10478,-3.73989 0.0175,-4.34975 -0.17356,-1.211 -0.0944,-1.26392 2.75485,-1.83356 2.45348,-0.49081 0.21563,-1.38113 -3.53881,-1.40812 l -2.12248,-0.0153 v 1.03452 c 0,0.96732 0.0648,1.05384 0.998,1.3335 l 0.99828,0.29898 v 1.66873 c 0,5.94969 0.62283,8.23225 0.8927,3.27104 z m -10.94687,1.94469 c 0,-0.97446 0.0667,-1.05992 1.18957,-1.52136 l 1.18983,-0.48948 0.001,-1.62322 0.001,-1.62321 -2.84428,-0.78926 -2.84427,-0.78898 -0.077,2.24737 c -0.0614,1.79387 0.0111,2.34447 0.35983,2.7297 0.30057,0.33232 0.40482,0.81545 0.3347,1.55205 -0.11483,1.20253 -0.0132,1.28799 1.56528,1.31762 l 1.12421,0.0206 z m 4.67863,0.45296 c -0.0847,-0.21087 -0.14711,-0.14816 -0.15981,0.16008 -0.0114,0.27887 0.0511,0.43497 0.13891,0.34713 0.0878,-0.0878 0.0974,-0.31618 0.0212,-0.50721 z m 1.40679,0.3011 c 0,-0.18415 0.15213,-0.19262 0.45191,-0.0246 0.31194,0.17436 0.53763,0.14764 0.7276,-0.0865 0.15161,-0.1868 0.69241,-0.41355 1.20174,-0.50403 0.55351,-0.0984 0.78396,-0.073 0.57309,0.0627 -0.2921,0.18838 -0.28999,0.25135 0.0122,0.3675 0.25188,0.0966 0.38311,-0.0971 0.42333,-0.62441 0.068,-0.89377 0.041,-0.89773 -2.277,-0.33153 -1.65947,0.40508 -2.7178,0.88953 -1.9439,0.88953 0.18336,0 0.25956,0.11907 0.1696,0.26459 -0.09,0.14552 0.0222,0.26458 0.24897,0.26458 0.22675,0 0.41249,-0.12488 0.41249,-0.27781 z m 26.59062,-0.23336 c 0.71332,-0.17145 0.61754,-0.22464 -0.94324,-0.52203 -1.4597,-0.27834 -1.88198,-0.27014 -2.64583,0.0511 l -0.90884,0.38259 0.92604,0.26167 c 0.91016,0.25718 2.00289,0.20426 3.57187,-0.1733 z m -42.99479,-0.17119 c 1.44357,-0.27887 1.08744,-1.27847 -0.79375,-2.22806 l -1.5875,-0.80142 v 3.48933 l 0.79375,-0.15346 z m 44.97917,-4.19365 v -3.81793 l -1.52136,-0.44583 c -0.83687,-0.24526 -1.96797,-0.50773 -2.51354,-0.58287 l -0.99219,-0.13653 v 7.71843 l 0.99219,0.17145 c 0.54584,0.0945 1.5875,0.32702 2.31511,0.51726 0.7276,0.18997 1.41234,0.35639 1.52135,0.36962 0.10901,0.0132 0.19844,-1.69386 0.19844,-3.7936 z m -6.409,-0.66357 c 0.081,-4.5085 0.0828,-4.50374 -1.59465,-4.51062 l -0.99219,-0.004 v 1.70233 c 0,1.66026 0.018,1.70418 0.72761,1.78594 l 0.7276,0.0836 0.0759,2.59715 c 0.14076,4.81251 0.96255,3.52425 1.05569,-1.65444 z m 29.09702,3.97007 c 0.18203,-0.0101 0.33073,-0.10742 0.33126,-0.21643 0,-0.109 -0.71438,-0.15822 -1.5875,-0.10874 -0.87339,0.0492 -1.58803,0.17727 -1.58803,0.28443 0,0.10715 0.56568,0.16404 1.25677,0.12673 z m -50.46927,-0.60192 1.45521,-0.30004 -1.13983,-0.23813 c -0.72919,-0.1524 -1.61581,-0.13599 -2.46062,0.045 -0.72629,0.15611 -1.69545,0.28337 -2.15398,0.28337 -0.9435,0 -0.72178,0.40958 0.33047,0.61092 0.75327,0.14394 1.87325,0.0307 3.96875,-0.40137 z m 43.65625,0.0857 c 0,-0.29369 -1.29329,-0.55748 -1.45442,-0.29687 -0.0654,0.10584 -0.0423,0.26829 0.0503,0.36142 0.25586,0.25559 1.40415,0.20267 1.40415,-0.0646 z m 5.55625,-0.56013 c 0.56912,-0.1823 0.50985,-0.21563 -0.42598,-0.23812 -0.59822,-0.0145 -1.64015,-0.10213 -2.31511,-0.19474 -0.8038,-0.11006 -1.22766,-0.0701 -1.22766,0.11642 0,0.44847 2.84744,0.67548 3.96875,0.31644 z m -60.35358,-0.42703 c 0.90329,-0.77418 -2.22832,-1.33139 -5.53773,-0.98531 l -1.6756,0.17515 1.17342,0.58605 c 1.05887,0.52917 5.49223,0.69321 6.03991,0.22411 z m 55.44159,0.19023 c 0.16748,-0.27093 -0.44662,-0.55695 -1.19512,-0.55695 -0.70538,0 -0.63765,0.46726 0.0878,0.60696 0.32755,0.0632 0.67733,0.13097 0.77814,0.15081 0.10054,0.0198 0.2487,-0.0706 0.32914,-0.20108 z m -66.4165,-1.54992 c -0.013,-0.69057 -0.0429,-2.41406 -0.0662,-3.82958 -0.046,-2.76702 -0.17172,-3.00752 -1.8288,-3.50203 l -0.59531,-0.1778 v 7.40437 l 1.12447,0.65484 c 0.61834,0.3601 1.18401,0.66649 1.25678,0.68051 0.0728,0.014 0.1217,-0.53949 0.109,-1.23031 z m 72.91599,-6.43097 c 0,-4.56406 -0.0979,-7.62793 -0.2413,-7.5393 -0.13282,0.082 -0.18389,0.51276 -0.11377,0.95726 0.10318,0.6567 0.0421,0.79296 -0.32676,0.72655 -0.24951,-0.045 -0.50589,0.0669 -0.56965,0.24871 -0.0656,0.18785 0.0979,0.33073 0.37809,0.33073 0.33523,0 0.51091,0.21166 0.54821,0.66146 0.0299,0.3638 -0.063,0.66145 -0.2069,0.66145 -0.33628,0 -0.34211,0.97738 -0.007,1.18428 0.16166,0.10001 0.15663,0.4146 -0.014,0.86386 -0.1479,0.38841 -0.1942,1.14724 -0.10318,1.68646 0.12885,0.7612 0.0661,1.03584 -0.28046,1.22978 -0.37439,0.20955 -0.39423,0.34634 -0.12515,0.84958 0.23019,0.43021 0.23495,0.54663 0.0161,0.41143 -0.21934,-0.13547 -0.28231,0.21907 -0.2249,1.2647 0.0479,0.86757 0.1868,1.39462 0.34476,1.30837 0.14552,-0.0796 0.11588,0.0156 -0.0661,0.21167 -0.18177,0.19579 -0.32888,0.54054 -0.32676,0.76623 0.004,0.36142 0.0344,0.36301 0.26061,0.0132 0.39767,-0.61542 0.3101,-0.1479 -0.13044,0.69744 -0.38496,0.73819 -0.37623,0.762 0.33073,0.92498 0.39926,0.0918 0.75565,0.18124 0.7919,0.19844 0.0365,0.0172 0.0661,-3.42873 0.0661,-7.65731 z m 9.51441,7.15963 c 0.62469,-0.34925 -1.90976,-0.61701 -3.62902,-0.38365 l -1.51977,0.20638 1.45521,0.33126 c 1.43854,0.32782 2.94402,0.26511 3.69358,-0.15399 z m 11.45382,0.11668 c 0.54583,-0.0968 0.99218,-0.28178 0.99218,-0.4109 0,-0.27702 -3.24273,-0.31565 -4.53099,-0.0537 l -0.89296,0.18124 1.32291,0.31327 c 0.72761,0.17224 1.50151,0.27569 1.71979,0.22966 0.21829,-0.046 0.8435,-0.16272 1.38907,-0.25956 z m -23.21719,-0.37412 c 0,-0.18997 -0.29766,-0.37439 -0.66146,-0.4101 -4.69,-0.45826 -6.62014,-0.34925 -4.96094,0.28045 1.32451,0.50218 5.6224,0.60167 5.6224,0.12965 z m -59.39896,-2.38337 c 0,-2.08862 0.008,-2.11322 0.72761,-2.27092 0.40005,-0.0878 0.87656,-0.20531 1.05833,-0.2614 0.23548,-0.0725 0.33073,-0.85778 0.33073,-2.72733 0,-2.99244 0.21166,-2.76013 -2.81914,-3.09483 l -1.62851,-0.17992 -0.0913,1.64836 -0.0913,1.64835 0.92604,0.43524 0.92604,0.43498 0.0741,3.23955 c 0.0825,3.59119 0.58737,4.56089 0.58737,1.12792 z m 72.70221,-1.25888 -0.0741,-3.37027 -1.85209,-0.33602 c -2.6035,-0.47228 -2.51354,-0.58129 -2.51354,3.04747 v 3.13082 l 1.91823,0.41248 c 1.05489,0.22675 2.07063,0.42863 2.2569,0.449 0.26273,0.0288 0.32199,-0.71808 0.26458,-3.33348 z m -77.62531,2.42278 c 0.56039,-1.46023 0.16404,-4.59316 -0.63315,-5.00538 l -0.79375,-0.41037 v 2.91703 c 0,2.90063 0.76121,4.2336 1.4269,2.49872 z m 64.41837,-0.23468 c -0.23019,-0.23045 -5.81872,-0.56436 -5.94784,-0.35534 -0.15636,0.25321 0.53393,0.39159 3.33799,0.67046 1.99787,0.19844 3.00249,0.0773 2.60985,-0.31512 z m 24.68615,-6.82096 c -0.0487,-4.11109 -0.11694,-7.50332 -0.1516,-7.53798 -0.0347,-0.0349 -0.44159,-0.13917 -0.90382,-0.23177 l -0.84058,-0.16828 v 15.41198 h 0.99219 l 0.99218,2.7e-4 z m -98.46892,6.72439 c 0,-0.34449 -0.31459,-0.57362 -0.57044,-0.4154 -0.27358,0.1688 -0.0376,0.63579 0.32147,0.63579 0.13705,0 0.24897,-0.0992 0.24897,-0.22039 z m 95.77917,-0.72126 c 0,-0.56039 -0.10716,-0.8755 -0.26459,-0.77814 -0.14552,0.09 -0.26458,0.51356 -0.26458,0.94165 0,0.4281 0.11906,0.77814 0.26458,0.77814 0.14553,0 0.26459,-0.42386 0.26459,-0.94165 z m -52.91667,0.24157 c 1.83621,-0.28549 0.11377,-0.69109 -1.98437,-0.46726 -1.89177,0.20162 -2.34924,0.41408 -1.45257,0.67469 0.64691,0.18812 1.04881,0.16404 3.43694,-0.20743 z m 20.76979,-0.0802 c 0.75089,-0.17833 0.72232,-0.20109 -0.52916,-0.41752 -1.58486,-0.27437 -3.42715,-0.2495 -3.89467,0.0529 -0.66172,0.42783 2.91571,0.72258 4.42383,0.3646 z m 10.16873,-0.63395 c -0.2741,-0.23944 -6.06769,-0.42941 -6.06769,-0.19896 0,0.3847 5.49275,0.84137 5.9354,0.49318 0.136,-0.10689 0.19553,-0.23918 0.13229,-0.29422 z m -76.7154,-3.13928 0.004,-2.5691 -1.74758,-0.53975 c -0.96123,-0.29686 -1.79466,-0.53975 -1.85208,-0.53975 -0.0574,0 -0.10451,1.16522 -0.10451,2.58921 v 2.58948 l 1.65365,0.8173 c 2.02221,0.99933 2.04126,0.97763 2.04655,-2.34739 z m 41.54355,-0.34131 v -3.57187 h -1.05834 c -1.05171,0 -1.05833,0.007 -1.09802,1.05833 -0.022,0.58208 -0.0516,1.20729 -0.0661,1.38906 -0.0145,0.18204 0.30083,0.3683 0.70114,0.41434 0.71941,0.0828 0.72761,0.10583 0.72761,2.0066 0,1.85764 0.1053,2.27542 0.57335,2.27542 0.12118,0 0.2204,-1.60735 0.2204,-3.57188 z m -14.81667,2.78263 c 0.94589,-0.14579 1.83303,-0.26591 1.97115,-0.26723 0.6768,-0.005 -0.40164,-0.50589 -1.65365,-0.7673 -1.79837,-0.3757 -3.71157,-0.35427 -5.87375,0.0661 l -1.71979,0.33417 2.24896,0.55298 c 1.23692,0.30401 2.48708,0.50615 2.77812,0.44953 0.29104,-0.0569 1.30308,-0.22252 2.24896,-0.3683 z m 35.98333,-4.89321 v -5.09138 l -1.38906,-0.15927 c -0.76411,-0.0873 -1.83568,-0.23866 -2.38125,-0.33603 l -0.99219,-0.17727 v 6.8887 l 1.7198,0.32437 1.71979,0.32438 v 1.78568 c 0,1.76159 0.009,1.78355 0.66146,1.65893 l 0.66145,-0.12647 z m -24.47395,4.60904 c 0.29104,-0.0122 -0.11483,-0.2413 -0.90223,-0.50906 -0.9025,-0.30718 -1.78065,-0.43047 -2.37702,-0.33363 l -0.94589,0.15345 1.31895,0.47017 c 0.72523,0.2585 1.55681,0.41857 1.84785,0.35586 0.29104,-0.063 0.76729,-0.12435 1.05834,-0.13652 z m 38.36564,0.0132 c 0.23601,-0.38179 -0.19844,-0.46566 -3.24221,-0.62653 -2.23176,-0.11774 -2.71198,-0.0767 -2.71198,0.23177 0,0.28628 0.51726,0.39635 2.18282,0.46435 1.20041,0.0489 2.50296,0.11324 2.8948,0.14287 0.39159,0.0296 0.78608,-0.0661 0.87657,-0.21246 z m 22.09165,-8.56059 v -8.29813 l -1.38906,-0.16933 c -0.76412,-0.0934 -1.65709,-0.24262 -1.98438,-0.33205 -0.57917,-0.15796 -0.59531,-0.10795 -0.59531,1.83673 v 1.99893 l 1.25677,0.17092 c 2.40242,0.3265 2.18281,-0.35454 2.18281,6.75852 0,4.04521 0.0955,6.33227 0.26458,6.33227 0.17066,0 0.26459,-2.94216 0.26459,-8.29786 z m -22.09589,7.24456 c 0.12145,-0.19633 -3.03053,-0.5342 -4.98448,-0.5342 -1.97538,0 -0.64241,0.50165 1.54913,0.58314 1.16364,0.0431 2.38575,0.0931 2.71569,0.11139 0.3302,0.0183 0.65405,-0.054 0.71966,-0.16033 z m -53.04578,-4.6527 v -4.38335 l -0.71543,0.0839 c -0.60272,0.0704 -0.71385,0.20875 -0.70538,0.87735 l 0.054,4.29948 0.0439,3.50573 h 1.32292 z m 35.05729,3.79068 c 1.22132,-0.31512 1.18507,-0.33602 -1.43086,-0.82656 -1.84415,-0.34554 -2.72759,-0.28945 -4.25768,0.26988 -0.59796,0.21881 2.92232,1.09194 3.83646,0.95171 0.43656,-0.0669 1.27,-0.24474 1.85208,-0.39503 z m -33.20521,-3.79148 v -4.11956 l -0.59531,0.0847 c -0.58393,0.0828 -0.59663,0.16166 -0.66834,4.1193 l -0.073,4.03489 h 1.33667 z m 13.42232,3.69491 c -0.0881,-0.0878 -0.31644,-0.0974 -0.50747,-0.0212 -0.21088,0.0847 -0.14817,0.14737 0.16007,0.16007 0.27887,0.0114 0.43497,-0.0511 0.34713,-0.1389 z m 37.64227,-0.19916 c 0,-0.36433 -5.16837,-0.9107 -5.49804,-0.58129 -0.35825,0.35851 0.42862,0.55404 2.80802,0.69823 1.40679,0.0852 2.58762,0.17463 2.62387,0.19844 0.0365,0.0238 0.0661,-0.118 0.0661,-0.31538 z m -61.38334,-0.40005 c 0,-0.2548 -1.54569,-0.56145 -2.77812,-0.55166 l -0.79375,0.007 0.66146,0.37809 c 0.72125,0.41249 2.91041,0.5379 2.91041,0.16669 z m -25.72384,-4.26852 c -0.0444,-2.42121 -0.17622,-3.96955 -0.33761,-3.96955 -0.1614,0 -0.29316,1.54834 -0.33761,3.96955 -0.0635,3.44222 -0.0185,3.96927 0.33761,3.96927 0.35613,0 0.40084,-0.52678 0.33761,-3.96927 z m 3.23426,0.26511 c 0,-3.52769 -0.0251,-3.70417 -0.52916,-3.70417 -0.50404,0 -0.52917,0.17648 -0.52917,3.70417 0,3.52769 0.0251,3.70416 0.52917,3.70416 0.50403,0 0.52916,-0.17647 0.52916,-3.70416 z m 0.98319,1.65364 c -0.0606,-0.40005 -0.11006,-0.0728 -0.11006,0.72761 0,0.80036 0.0495,1.12792 0.11006,0.7276 0.0609,-0.40005 0.0609,-1.05489 0,-1.45521 z m 1.98068,0.39688 c 0.0789,-1.65365 0.0789,-1.65365 0.93874,-1.73646 0.82656,-0.0799 0.85989,-0.1278 0.85989,-1.24116 0,-1.39436 -0.21748,-1.56104 -1.73857,-1.33297 l -1.17184,0.17594 v 2.89402 c 0,3.54224 0.9517,4.60375 1.11178,1.24063 z m 52.43882,-3.30729 0.12965,-4.82865 h -1.29276 v 4.91331 c 0,4.72652 0.0196,4.90988 0.517,4.82865 0.48498,-0.0794 0.52467,-0.38074 0.64611,-4.91331 z m 5.26204,4.67995 1.00144,-0.27808 -0.0754,-2.69028 -0.0751,-2.69029 -1.16152,-0.19764 c -1.61582,-0.27517 -1.61661,-0.27358 -1.61661,3.11018 0,3.37634 -0.0558,3.2967 1.92723,2.74611 z m -65.22218,-4.12909 c -0.0503,-2.87523 -0.16774,-4.17698 -0.38258,-4.24842 -0.2294,-0.0762 -0.29819,1.00013 -0.26459,4.14338 0.0344,3.24115 0.12515,4.24709 0.38259,4.24868 0.26247,0.002 0.32147,-0.92075 0.26458,-4.14338 z m 42.39287,-0.22013 c 0,-2.4011 -0.0497,-4.36563 -0.1106,-4.36563 -0.88053,0 -0.94774,0.32121 -0.94774,4.52623 0,4.02854 0.0222,4.20502 0.52917,4.20502 0.508,0 0.52917,-0.17648 0.52917,-4.36562 z m 1.85208,2.38125 c 0,-1.94019 -0.0148,-1.98438 -0.66146,-1.98438 -0.65511,0 -1.06574,3.21151 -0.48498,3.79227 0.75671,0.75671 1.14644,0.14209 1.14644,-1.80789 z m 6.35,0.66145 c 0,-1.14644 -0.0706,-1.32291 -0.52917,-1.32291 -0.45852,0 -0.52916,0.17647 -0.52916,1.32291 0,1.14644 0.0706,1.32292 0.52916,1.32292 0.45853,0 0.52917,-0.17648 0.52917,-1.32292 z m 37.83542,0.92605 c 0,-0.29025 -0.30216,-0.39741 -1.12448,-0.39873 -0.61833,-0.001 -1.94442,-0.0794 -2.9464,-0.17383 -1.50045,-0.14182 -1.79996,-0.10636 -1.69863,0.20029 0.0881,0.26723 0.78952,0.41407 2.48312,0.5207 1.29831,0.0818 2.56884,0.17092 2.82337,0.19843 0.25744,0.0278 0.46302,-0.1262 0.46302,-0.34686 z m -89.52839,-0.69454 c -0.091,-0.45481 -0.16536,-1.34778 -0.16536,-1.98437 0,-0.63659 -0.11906,-1.15755 -0.26458,-1.15755 -0.15293,0 -0.26459,0.83793 -0.26459,1.98437 0,1.65524 0.0714,1.98438 0.42995,1.98438 0.34052,0 0.39555,-0.17198 0.26458,-0.82683 z m 3.78355,-1.76847 c -0.0357,-4.22725 -0.43921,-5.0972 -0.47625,-1.02711 -0.0214,2.37648 0.0595,3.59648 0.23151,3.49012 0.14605,-0.0902 0.25585,-1.19301 0.245,-2.46301 z m 55.1127,1.25016 c 0.12753,-1.18904 0.11642,-1.21047 -0.56012,-1.08083 -0.37941,0.0728 -0.52784,0.18653 -0.32941,0.25294 0.30454,0.1016 0.30454,0.15664 0,0.35296 -0.25558,0.16483 -0.27463,0.29051 -0.0656,0.43101 0.16245,0.109 0.38153,0.47519 0.48736,0.81359 0.24871,0.79719 0.31088,0.69506 0.46778,-0.76994 z M 94.542569,175.9543 v -3.57188 h -2.352146 l -0.0807,1.25678 -0.0807,1.25677 -1.124479,-0.0889 -1.124479,-0.0889 v 4.21878 l 1.521354,0.26061 c 0.836877,0.14341 1.90844,0.27596 2.38125,0.29475 l 0.859896,0.0339 z m 5.027083,3.175 c 0,-0.21828 -0.04683,-0.39688 -0.103981,-0.39688 -0.05715,0 -0.172508,0.1786 -0.256381,0.39688 -0.08361,0.21828 -0.03704,0.39687 0.103981,0.39687 0.141023,0 0.256381,-0.17859 0.256381,-0.39687 z m 23.217188,0.23019 c 1.7137,-0.45932 -0.81889,-1.02473 -2.97656,-0.66464 -1.24619,0.20797 -1.28455,0.2376 -0.66146,0.50933 0.73131,0.31882 2.71198,0.40349 3.63802,0.15531 z m 36.23019,-0.41196 c -0.0847,-0.21114 -0.14711,-0.14843 -0.15981,0.15981 -0.0114,0.27887 0.0511,0.43497 0.13891,0.34713 0.0878,-0.0878 0.0974,-0.31617 0.0212,-0.5072 z m 46.51825,0.39344 c 0.96229,-0.16272 0.99827,-0.19632 0.39687,-0.36777 -0.88344,-0.25136 -2.88396,-0.27808 -3.70417,-0.0492 l -0.66145,0.18467 0.79375,0.17728 c 1.11072,0.24817 1.94812,0.26273 3.175,0.055 z M 98.511319,177.43782 c 0,-1.72456 -0.185738,-2.14498 -0.947738,-2.14498 -0.06085,0 -0.110595,0.89297 -0.110595,1.98438 0,1.80789 0.04709,1.98437 0.529166,1.98437 0.478102,0 0.529167,-0.17648 0.529167,-1.82377 z m -9.577917,-0.20902 c -0.08943,-1.69598 -0.08678,-1.69413 -2.936346,-2.05026 l -1.508654,-0.18838 v 1.46923 c 0,1.61898 -0.219869,1.43669 2.38125,1.97167 2.202656,0.45271 2.15265,0.48181 2.06375,-1.202 z m 101.773038,1.25862 c 0.0833,-0.13494 -0.47519,-0.30903 -1.2409,-0.38709 -4.48971,-0.45772 -4.75694,-0.46434 -4.64052,-0.11165 0.1053,0.31909 0.69215,0.40032 5.01808,0.69533 0.39159,0.0265 0.78026,-0.0619 0.86334,-0.19659 z m 1.25492,-0.92948 c -0.14764,-1.26418 -0.31671,-1.1938 -0.31671,0.13176 0,0.59055 0.096,1.01468 0.21326,0.94192 0.11747,-0.0722 0.16404,-0.55563 0.10318,-1.07368 z m -67.78546,0.2704 c 0,-0.70538 -1.97062,-1.69148 -2.76807,-1.38536 -1.55469,0.59664 -0.35004,1.53088 2.56963,1.99338 0.10901,0.0175 0.19844,-0.25639 0.19844,-0.60802 z m 82.81458,-2.80008 c 0,-2.11667 -0.10186,-3.43959 -0.26458,-3.43959 -0.16272,0 -0.26458,1.32292 -0.26458,3.43959 0,2.11666 0.10186,3.43958 0.26458,3.43958 0.16272,0 0.26458,-1.32292 0.26458,-3.43958 z m 1.32292,0.13229 c 0,-2.46989 -0.0836,-3.30703 -0.33073,-3.30623 -0.29739,0.001 -0.44503,3.59621 -0.24712,6.01821 0.16801,2.05502 0.57785,0.13176 0.57785,-2.71198 z m -108.827621,2.46406 c -0.08467,-0.21113 -0.147108,-0.14843 -0.159808,0.15981 -0.01138,0.27887 0.05107,0.43498 0.138906,0.34714 0.08784,-0.0878 0.09737,-0.31618 0.02117,-0.50721 z M 205.81177,176.7454 c 0.27331,-2.1881 -0.0847,-5.42131 -0.60061,-5.42131 -0.34078,0 -0.38259,0.2376 -0.24421,1.38906 0.0918,0.76412 0.16801,2.31193 0.16933,3.43959 0.003,2.37093 0.40879,2.72732 0.67549,0.59266 z m -89.18787,1.01468 c 1.6637,-0.2749 0.41222,-0.57838 -2.36987,-0.5752 -2.22938,0.003 -2.33072,0.0265 -1.5875,0.36644 0.87101,0.39873 2.33759,0.47625 3.95737,0.20876 z m 87.28234,-2.79797 c 0.0942,-1.63724 0.17198,-3.76026 0.1725,-4.71805 l 10e-4,-1.74149 -0.9697,-0.29765 c -1.7018,-0.52229 -2.23361,1.98808 -0.61595,2.9083 l 0.7919,0.45085 v 3.18717 c 0,4.01823 0.39264,4.15158 0.61992,0.21087 z m -121.534504,0.23548 v -2.4765 l -1.503363,-0.15531 c -1.967442,-0.20293 -1.936221,-0.24077 -1.936221,2.33363 v 2.22144 l 0.992188,0.16616 c 0.545835,0.0913 1.11125,0.20637 1.256771,0.25558 1.109133,0.37624 1.190625,0.21537 1.190625,-2.345 z m 108.461434,1.84891 c -0.2831,-0.26458 -6.06769,-0.4736 -6.06769,-0.21881 0,0.14975 1.0295,0.34528 2.31511,0.43921 1.27344,0.0937 2.55323,0.19949 2.84427,0.23601 0.51858,0.0646 1.13453,-0.24474 0.90831,-0.45641 z M 78.138402,176.21147 v -0.93318 l -2.182812,0.12964 c -1.778265,0.10531 -2.168525,0.20479 -2.105025,0.53632 0.0426,0.22383 -0.07646,0.42201 -0.264584,0.44026 -0.277812,0.027 2.956984,0.58103 4.221692,0.72337 0.209021,0.0233 0.330729,-0.30612 0.330729,-0.89641 z m 40.481248,-1.3155 c 0,-1.09141 0.0299,-2.07381 0.0662,-2.18282 0.0365,-0.109 -0.20161,-0.23653 -0.52916,-0.2831 -0.57759,-0.082 -0.59532,-0.0172 -0.59532,2.18281 0,2.091 0.0413,2.26748 0.52917,2.26748 0.48207,0 0.52917,-0.17648 0.52917,-1.98437 z m 37.78859,1.5404 c -0.17225,-0.89429 -3.12817,-1.36102 -3.12817,-0.49398 0,0.68633 0.36697,0.83662 2.20212,0.90197 0.81519,0.0291 0.99484,-0.0503 0.92605,-0.40799 z m -56.922461,-0.39952 c -0.08467,-0.21087 -0.147108,-0.14817 -0.159808,0.16007 -0.01138,0.27887 0.05107,0.43498 0.138906,0.34714 0.08784,-0.0878 0.09737,-0.31618 0.02117,-0.50721 z m 14.635961,-2.30055 c 0,-3.17236 -0.0122,-3.19299 -1.91823,-3.20225 -0.86546,-0.005 -1.16417,2.94719 -0.33073,3.26707 0.27993,0.10742 0.39687,0.54425 0.39687,1.48352 v 1.33112 h 1.85209 z m 38.36458,1.05833 c 0,-1.98437 -0.13494,-2.13519 -1.91823,-2.14392 -0.70591,-0.004 -0.72761,0.0397 -0.72761,1.45151 0,1.45018 0.003,1.4552 0.81863,1.4552 0.59584,0 0.85592,0.14394 0.95673,0.52917 0.34263,1.30969 0.87048,0.52626 0.87048,-1.29196 z m -26.07575,1.31763 c 0.48022,-0.18786 0.47255,-0.21246 -0.11536,-0.36619 -0.76253,-0.19949 -2.87205,0.0601 -3.0681,0.37756 -0.17198,0.27834 2.4675,0.26908 3.18346,-0.0111 z m 33.48408,-0.18865 c 0,-0.31433 -0.15769,-0.3855 -0.59531,-0.26803 -0.32756,0.0876 -0.75142,0.16114 -0.94165,0.16299 -0.1905,0.002 -0.27252,0.12276 -0.18283,0.26829 0.28178,0.45587 1.71979,0.31935 1.71979,-0.16325 z m 30.8909,0.0971 c -0.13097,-0.39661 -5.49063,-0.80513 -5.86581,-0.44715 -0.34767,0.33152 0.24156,0.4871 2.22699,0.58844 0.94589,0.0481 2.1762,0.11033 2.73394,0.13837 0.70988,0.0357 0.98161,-0.0481 0.90488,-0.27966 z m 1.03981,-0.24818 c -0.0847,-0.21087 -0.14711,-0.14817 -0.15981,0.16007 -0.0114,0.27887 0.0511,0.43498 0.13891,0.34713 0.0878,-0.0878 0.0974,-0.31617 0.0212,-0.5072 z M 69.671736,174.63138 v -1.45521 h -1.190625 c -0.881857,0 -1.190625,-0.10292 -1.190625,-0.39687 0,-0.26458 0.264583,-0.39688 0.79375,-0.39688 0.529166,0 0.79375,-0.13229 0.79375,-0.39687 0,-0.30877 -0.35269,-0.39688 -1.5875,-0.39688 h -1.5875 v 2.09736 c 0,2.38574 -0.06879,2.31907 2.447395,2.36987 l 1.521355,0.0307 z m 60.270494,-0.85989 c 0.0881,-2.17726 0.0643,-2.19472 -2.20954,-1.62216 l -1.17554,0.2958 v 1.32847 c 0,1.64651 0.45403,2.07169 2.11667,1.98094 l 1.19062,-0.0648 z m 5.61075,1.38906 c 0,-0.55854 -0.12356,-0.66146 -0.79375,-0.66146 -0.67019,0 -0.79375,0.10292 -0.79375,0.66146 0,0.55853 0.12356,0.66146 0.79375,0.66146 0.67019,0 0.79375,-0.10293 0.79375,-0.66146 z m -73.218669,-1.38906 c 0.176741,-2.20107 0.188383,-2.18282 -1.409436,-2.18282 h -1.307306 v 1.43352 c 0,0.78846 -0.06879,1.61237 -0.1524,1.83091 -0.161396,0.42016 0.35216,0.60061 1.902354,0.66834 l 0.823383,0.036 z m 58.606799,-2.79982 c 0.0577,-3.49832 7.9e-4,-4.41008 -0.27438,-4.41008 -0.26987,0 -0.36115,1.00145 -0.41142,4.52279 -0.0513,3.5814 0.006,4.49924 0.27437,4.40981 0.25347,-0.0841 0.35719,-1.22396 0.41143,-4.52252 z m 1.11812,0.20452 c 0,-2.85353 -0.0923,-4.32435 -0.26458,-4.21772 -0.15848,0.0979 -0.26458,1.85473 -0.26458,4.38123 0,2.63525 0.0992,4.21772 0.26458,4.21772 0.16563,0 0.26458,-1.63671 0.26458,-4.38123 z m 25.61485,2.26457 c 0.13017,-3.12579 -0.0945,-4.14285 -0.95409,-4.31641 -0.3937,-0.0794 -0.92419,-0.2249 -1.17898,-0.32359 -0.42651,-0.1651 -0.46303,0.095 -0.46303,3.30332 v 3.48245 l 1.25678,-0.0807 1.25677,-0.0807 z m -88.850261,1.05833 v -0.79375 l -1.785938,-0.004 c -3.019425,-0.006 -2.976562,0.0302 -2.976562,-2.51116 v -2.18864 l -0.910167,-0.17092 c -1.475581,-0.27675 -2.264833,0.0413 -2.264833,0.91281 0,1.25678 -0.249767,1.58036 -1.218936,1.58036 h -0.897731 v 1.5875 c 0,0.87313 0.0299,1.60338 0.06615,1.62296 0.03651,0.0196 2.14974,0.18044 4.696354,0.35771 2.546615,0.17727 4.779169,0.33973 4.960938,0.36142 0.19976,0.0238 0.330729,-0.27516 0.330729,-0.75459 z m 99.218751,0.52917 c 0.49292,-0.15796 0.24447,-0.21855 -0.97658,-0.23813 -0.90091,-0.0145 -1.71185,0.0926 -1.80155,0.23813 -0.19447,0.31485 1.79573,0.31485 2.77813,0 z m 32.7906,-0.37042 c -0.063,-0.063 -1.39435,-0.20029 -2.95883,-0.30506 -3.75365,-0.25136 -3.86927,0.26484 -0.13229,0.59081 2.36431,0.20611 3.48006,0.10319 3.09112,-0.28575 z M 64.828008,174.0411 c -0.0672,-0.25744 -0.12647,-0.11086 -0.131762,0.3257 -0.0053,0.43656 0.04948,0.64717 0.121708,0.46805 0.07276,-0.17913 0.07726,-0.53631 0.01005,-0.79375 z m 23.893728,0.72257 c -0.363803,-0.11641 -1.018646,-0.21166 -1.455209,-0.21166 -0.771789,0 -0.775229,0.006 -0.132291,0.21166 0.363802,0.11642 1.018645,0.21167 1.455208,0.21167 0.771789,0 0.775229,-0.006 0.132292,-0.21167 z m 10.847916,-0.13229 c 0.422275,-0.50879 -0.0085,-0.51408 -0.677069,-0.008 -0.43127,0.3265 -0.4445,0.38973 -0.08281,0.39688 0.236802,0.005 0.578644,-0.17013 0.759883,-0.38841 z m 8.112658,-0.46302 c -0.0733,-0.18203 -0.13335,-0.0331 -0.13335,0.33073 0,0.3638 0.0601,0.51276 0.13335,0.33073 0.0735,-0.18203 0.0735,-0.47969 0,-0.66146 z m -26.661272,-2.3151 c 2.388129,0 2.923116,-0.0759 3.264958,-0.46302 0.580496,-0.65723 2.75246,-5.07021 3.474508,-7.05909 l 0.608542,-1.67666 -0.844815,-0.25929 c -0.779727,-0.23919 -0.900112,-0.18971 -1.565804,0.64452 -0.567796,0.71173 -0.797983,0.83979 -1.083998,0.60246 -0.199496,-0.16563 -0.474662,-0.23204 -0.611187,-0.14764 -0.13679,0.0847 -0.316177,-0.0222 -0.398463,-0.23733 -0.09287,-0.24183 -0.321998,-0.32491 -0.600604,-0.21802 -0.308239,0.11827 -0.388937,0.0735 -0.255323,-0.14234 0.225425,-0.36486 -1.105429,-0.99748 -2.395273,-1.13903 -0.701939,-0.0767 -1.064418,0.12991 -2.320396,1.32424 -1.072356,1.0197 -1.616339,1.36525 -1.94601,1.2356 -0.378883,-0.14923 -0.230187,-0.38074 0.865188,-1.34594 l 1.322916,-1.16601 -3.042708,1.00991 c -1.67349,0.55563 -3.90869,1.23243 -4.967023,1.50469 -1.840442,0.47281 -1.961356,0.55271 -2.770981,1.83091 -0.465667,0.73501 -1.435365,2.05079 -2.155296,2.92391 l -1.309158,1.5875 2.624666,0.13229 2.624667,0.1323 0.08361,0.7276 0.08387,0.7276 2.297377,0.0312 c 1.26365,0.0175 2.387071,0.0175 2.496079,0 0.109273,-0.0172 0.198438,0.43921 0.198438,1.01442 v 1.04589 l 1.653646,0.0786 1.653646,0.0788 0.07937,-1.38906 0.07938,-1.38906 z m -5.793052,1.32291 c 0,-0.14552 0.119062,-0.26458 0.264583,-0.26458 0.145521,0 0.264583,0.11906 0.264583,0.26458 0,0.14553 -0.119062,0.26459 -0.264583,0.26459 -0.145521,0 -0.264583,-0.11906 -0.264583,-0.26459 z m 0.79375,-0.79375 c 0,-0.14552 0.126206,-0.26458 0.280193,-0.26458 0.153988,0 0.206375,0.11906 0.116682,0.26458 -0.08996,0.14553 -0.2159,0.26459 -0.280194,0.26459 -0.06429,0 -0.116681,-0.11906 -0.116681,-0.26459 z m -28.045834,1.45521 v -0.66146 h -3.175 c -3.829314,0 -4.696354,0.62442 -1.256771,0.90488 2.016125,0.16457 3.546475,0.3048 4.101042,0.37571 0.187854,0.0238 0.330729,-0.24368 0.330729,-0.61913 z m 112.392878,-1.38906 c -0.0759,-2.01851 -0.0886,-2.05184 -0.80486,-2.13413 l -0.7276,-0.0839 v 1.95792 c 0,2.15582 0.0659,2.3106 0.98134,2.3106 0.6141,0 0.62653,-0.0466 0.55112,-2.05052 z m -119.536628,0.19844 v -1.5875 h -3.96875 v 1.31762 c 0,1.47955 0.04736,1.51104 2.513542,1.67429 0.727604,0.0484 1.35255,0.10927 1.389062,0.13546 0.03625,0.0262 0.06615,-0.66675 0.06615,-1.53987 z m 50.535417,0.92604 c 0,-0.63368 -0.02037,-0.64214 -0.487098,-0.19844 -0.533135,0.50668 -0.489479,0.8599 0.105833,0.8599 0.230188,0 0.381265,-0.26194 0.381265,-0.66146 z m 6.107906,-0.16007 c -0.233098,-0.58262 -0.254794,-0.58923 -0.270404,-0.0825 -0.0093,0.30321 0.06271,0.63076 0.159808,0.7276 0.315913,0.31618 0.369623,0.003 0.110596,-0.64505 z m 58.636955,-0.83212 c -0.063,-0.32755 -0.11456,-0.0595 -0.11456,0.59531 0,0.65485 0.0516,0.92261 0.11483,0.59532 0.063,-0.32756 0.063,-0.86334 0,-1.19063 z m 2.19472,-0.67469 c 0,-1.28058 0.12488,-2.45321 0.27781,-2.60614 0.15664,-0.15663 0.24289,-1.07077 0.19844,-2.10344 l -0.0794,-1.82562 h -1.5875 l -0.0725,4.43177 -0.0725,4.43177 h 0.66781 c 0.66358,0 0.66781,-0.0153 0.66781,-2.32834 z m 12.03854,1.76451 c 1.6854,-0.47202 0.30242,-0.81095 -1.77747,-0.43577 -1.36895,0.24686 -1.54516,0.33338 -1.00065,0.49107 0.98636,0.28522 1.60602,0.27278 2.77812,-0.0553 z m 20.50521,-0.0976 c 0,-0.31115 -0.36327,-0.39687 -1.68275,-0.39687 -0.92578,0 -2.23546,-0.0757 -2.91042,-0.16828 -1.01864,-0.1397 -1.22766,-0.0963 -1.22766,0.25479 0,0.35058 0.41777,0.43762 2.44739,0.51012 1.3462,0.0479 2.65563,0.11192 2.91042,0.14208 0.25956,0.031 0.46302,-0.11933 0.46302,-0.34184 z m 0.97711,-0.59029 c -0.0672,-0.25743 -0.12647,-0.11086 -0.13177,0.32571 -0.005,0.43656 0.0495,0.64717 0.12171,0.46804 0.0728,-0.17912 0.0773,-0.53631 0.0101,-0.79375 z M 31.307152,172.64704 c 0,-0.98954 -0.04974,-1.05834 -0.760677,-1.05834 -0.756709,0 -1.359959,-1.20359 -0.942446,-1.87933 0.08202,-0.13229 -0.782373,-0.23733 -1.956858,-0.23733 -2.38469,0 -2.345002,-0.0434 -2.299759,2.51354 l 0.02328,1.32292 2.902215,0.14605 c 1.595967,0.0804 2.931583,0.16986 2.968096,0.19843 0.03625,0.0291 0.06615,-0.42386 0.06615,-1.00594 z m 5.027084,-0.52917 v -1.5875 h 0.926041 c 0.852488,0 0.926042,-0.063 0.926042,-0.79375 0,-0.78581 -0.01482,-0.79375 -1.455208,-0.79375 h -1.455209 v 1.05833 c 0,0.9525 -0.06615,1.05834 -0.661458,1.05834 -0.617273,0 -0.661458,0.0881 -0.661458,1.32291 v 1.32292 h 2.38125 z m 71.353624,1.00886 c -0.0847,-0.21114 -0.14711,-0.14843 -0.15981,0.15981 -0.0114,0.27887 0.0511,0.43497 0.13891,0.34713 0.0878,-0.0878 0.0974,-0.31618 0.0212,-0.50721 z m 1.14221,-0.0984 c 0,-0.22675 -0.11906,-0.33867 -0.26458,-0.24898 -0.14552,0.09 -0.26459,0.27544 -0.26459,0.41249 0,0.13705 0.11907,0.24897 0.26459,0.24897 0.14552,0 0.26458,-0.18573 0.26458,-0.41248 z m 70.61914,-0.32729 c 1.06892,-0.4109 -2.95328,-0.76809 -4.70482,-0.41778 -2.04602,0.40931 0.0915,0.93451 2.85274,0.70115 0.78687,-0.0667 1.62031,-0.19421 1.85208,-0.28311 z m -155.622094,0.0508 c -0.08784,-0.0878 -0.316177,-0.0974 -0.506941,-0.0212 -0.211138,0.0847 -0.148431,0.14737 0.159808,0.16007 0.278871,0.0114 0.434975,-0.0511 0.347133,-0.13891 z m 9.323917,-0.95648 c 0.0045,-0.10451 -0.170391,-0.1217 -0.388672,-0.0378 -0.218282,0.0839 -0.396875,0.40058 -0.396875,0.7038 0,0.55456 0.759883,-0.0897 0.785283,-0.66596 z m 25.722263,0.25639 0.08282,-0.8599 2.055547,-0.0773 2.055284,-0.0775 1.179777,-1.50283 c 1.339585,-1.70683 1.26021,-1.97988 -0.541338,-1.86399 l -1.277937,0.082 -0.01588,1.03505 c -0.0087,0.57943 -0.161396,1.08399 -0.346604,1.14644 -0.232834,0.0786 -0.330729,-0.24792 -0.330729,-1.1012 v -1.21258 h -1.322917 c -1.241954,0 -1.322917,-0.0413 -1.322917,-0.67522 0,-0.64823 -0.0553,-0.67204 -1.389062,-0.59531 l -1.389063,0.0799 -0.0799,1.24063 c -0.07276,1.12712 -0.145521,1.24804 -0.79375,1.32291 -0.674687,0.0778 -0.718344,0.16828 -0.794279,1.64016 -0.116946,2.26615 -0.105304,2.27859 2.172229,2.27859 h 1.975644 z m 80.648434,0.49609 c 0,-0.37809 -1.1004,-0.69453 -2.41432,-0.69453 -1.08558,0 -1.00198,0.73025 0.0992,0.86704 1.83515,0.22754 2.3151,0.19182 2.3151,-0.17251 z m 29.83178,-0.0897 c 2.00183,-0.31115 0.96943,-3.39778 -1.07051,-3.2004 l -0.84772,0.082 -0.0889,1.82298 c -0.0881,1.80525 -0.0831,1.8206 0.52916,1.62586 0.33999,-0.10821 1.00515,-0.25664 1.47797,-0.33046 z m -150.151046,0.0138 c -0.182033,-0.0736 -0.330729,-0.36168 -0.330729,-0.64055 0,-0.43736 -0.197114,-0.50721 -1.433512,-0.50721 -1.918229,0 -2.270654,-0.16854 -2.270654,-1.08664 0,-0.89535 0.0635,-0.87551 -1.158346,-0.36513 -1.475052,0.61648 -1.302809,1.33694 0.44106,1.84388 1.678781,0.4879 5.656263,1.12051 4.752181,0.75565 z m 29.831772,-1.54463 c 0.918633,0 0.92657,-0.0103 1.007268,-1.2708 0.05133,-0.80407 0.221457,-1.32477 0.463021,-1.41737 0.272786,-0.10478 0.381794,-0.59134 0.381794,-1.70577 v -1.55919 h -2.910417 l -0.05159,1.38906 c -0.09446,2.54715 -0.11377,2.73447 -0.3175,3.06388 -0.116945,0.18918 -0.611716,0.29554 -1.173427,0.25215 l -0.97102,-0.0749 -0.07937,1.37398 -0.07937,1.37398 1.27,0.0812 c 1.228195,0.0786 1.274233,0.0553 1.402291,-0.71252 0.117475,-0.70565 0.235215,-0.79375 1.058334,-0.79375 z m 15.791127,1.14114 c -0.08467,-0.21113 -0.147109,-0.14843 -0.159809,0.15981 -0.01138,0.27887 0.05107,0.43498 0.138907,0.34714 0.08784,-0.0878 0.09737,-0.31618 0.02117,-0.50721 z m 126.025537,0.30551 c 0,-0.3892 -0.34872,-0.45773 -3.24114,-0.63659 -2.16588,-0.13414 -2.57969,-0.0974 -2.57969,0.22939 0,0.28602 0.40216,0.41434 1.52135,0.48446 3.29406,0.20664 4.29948,0.18864 4.29948,-0.0773 z m 7.29456,0.0381 c -0.23045,-0.37306 -1.96876,-0.60987 -2.88501,-0.39317 l -0.83767,0.19791 0.79375,0.18362 c 1.18057,0.27331 3.09536,0.28072 2.92893,0.0116 z M 44.800902,170.66263 c 0,-0.97022 0.115359,-1.71979 0.264584,-1.71979 0.14552,0 0.264583,-0.23812 0.264583,-0.52917 0,-0.48498 -0.176477,-0.52916 -2.116667,-0.52916 -1.23481,0 -2.116666,-0.11033 -2.116666,-0.26459 0,-0.14552 0.357187,-0.26458 0.79375,-0.26458 0.617272,0 0.79375,-0.11747 0.79375,-0.52917 0,-0.49397 -0.176478,-0.52916 -2.645834,-0.52916 h -2.645833 v 0.90752 c 0,0.74004 0.110067,0.92339 0.595312,0.99219 0.474663,0.0675 0.611717,0.28045 0.675746,1.04986 0.08731,1.04564 0.461169,1.27318 2.102379,1.28006 0.805657,0.003 0.859896,0.0622 0.859896,0.92974 v 0.92604 h 3.175 z m 148.755628,1.19169 c 0.74163,-0.45244 0.7837,-0.52838 0.29263,-0.52917 -0.84984,-0.002 -1.41076,0.27252 -1.41076,0.68871 0,0.48075 0.0889,0.46805 1.11813,-0.15954 z m -39.7473,-0.001 c -0.21828,-0.14103 -0.75406,-0.25665 -1.19062,-0.25665 -0.43656,0 -0.97234,0.11562 -1.19063,0.25665 -0.28045,0.18124 0.0691,0.25664 1.19063,0.25664 1.12157,0 1.47108,-0.0754 1.19062,-0.25664 z m 48.22032,0.0894 c -0.18204,-0.0736 -0.47969,-0.0736 -0.66146,0 -0.18203,0.0733 -0.0331,0.13335 0.33073,0.13335 0.3638,0 0.51276,-0.0601 0.33073,-0.13335 z m -177.336981,-1.6595 c 0,-1.51447 0.0254,-1.57268 0.725222,-1.65365 2.073011,-0.23918 0.928688,-1.00965 -1.499658,-1.00965 h -2.400564 v 1.03003 c 0,1.10093 -0.446353,1.49701 -1.359959,1.20703 -0.270669,-0.0857 -0.505354,-0.0587 -0.521229,0.0603 -0.01588,0.11906 -0.06138,0.60325 -0.101335,1.07606 l -0.07223,0.85989 H 24.69257 Z M 179.47382,160.0793 c 0,-10.28938 -0.0503,-11.77396 -0.39688,-11.77396 -0.3466,0 -0.39687,1.48458 -0.39687,11.77396 0,10.28938 0.0503,11.77396 0.39687,11.77396 0.34661,0 0.39688,-1.48458 0.39688,-11.77396 z m 21.38415,11.22997 c 0.33602,-0.2151 0.12965,-0.24791 -0.84984,-0.13493 -0.71146,0.0825 -1.78303,0.16404 -2.38125,0.18097 -1.0496,0.0304 -1.05992,0.0389 -0.29369,0.24659 0.9607,0.26062 2.91439,0.0984 3.52478,-0.29263 z m -97.31957,-0.20531 c 0,-0.32359 -0.30797,-0.57944 -0.92604,-0.76915 -1.1094,-0.34025 -1.40864,0.54769 -0.33073,0.98108 0.9234,0.37121 1.25677,0.31485 1.25677,-0.21193 z m 37.30625,0.22013 c 0.28152,-0.18177 -0.0265,-0.25215 -1.05833,-0.24183 -1.0549,0.0106 -1.30969,0.077 -0.92604,0.24183 0.71887,0.30903 1.50627,0.30903 1.98437,0 z m 35.38802,0.0979 0.59531,-0.15954 v -23.22169 h -1.50442 l -0.17383,4.40796 c -0.22622,5.73616 -0.22436,18.73646 0.003,18.96348 0.21325,0.21352 0.31697,0.21431 1.08029,0.01 z m 1.78753,-22.05831 c -0.0333,-0.50932 -0.16669,-0.98557 -0.29581,-1.05834 -0.26511,-0.14922 -0.26326,-0.34157 -0.11774,13.36146 l 0.10663,10.05417 0.18389,-10.71563 c 0.10107,-5.89359 0.15636,-11.13234 0.12303,-11.64166 z m -21.65033,18.91771 c 0.0259,-1.60073 0.0556,-3.05938 0.0662,-3.24115 0.0143,-0.24712 0.91625,-0.33073 3.57267,-0.33073 h 3.55388 l -0.0481,-6.13119 -0.0479,-6.13092 -21.76198,-0.11933 c -15.50512,-0.0852 -21.76198,-0.037 -21.76198,0.16669 0,0.38311 4.46034,5.60017 4.78763,5.60017 0.14129,0 0.84455,-0.29766 1.56237,-0.66146 0.87286,-0.44238 1.74201,-0.66146 2.62308,-0.66146 1.16363,0 1.51288,-0.1479 2.98873,-1.26471 3.96161,-2.99852 8.31876,-1.81054 14.67908,4.00262 2.32305,2.12302 2.74929,2.02459 -8.78152,2.02459 -5.60255,0 -10.18646,0.0635 -10.18646,0.14155 0,0.0778 0.53261,0.8218 1.18349,1.65365 0.65087,0.83158 1.6629,2.13386 2.24895,2.89375 1.19936,1.55442 2.39263,2.08941 3.32502,1.49066 0.67892,-0.4363 2.14048,-0.077 3.5896,0.88212 0.96864,0.64109 1.06575,0.65299 2.84772,0.35243 1.32873,-0.22411 1.9939,-0.23151 2.37754,-0.0265 0.84032,0.44979 1.36102,0.34501 1.36102,-0.27411 0,-0.5162 0.0963,-0.54504 1.25677,-0.37624 1.63089,0.2376 2.44739,0.77205 2.44739,1.60232 0,1.01203 1.12475,1.31762 4.84902,1.31762 h 3.22078 z m 34.56411,2.6789 c 0.20294,-0.52916 -1.99628,-0.77602 -3.3618,-0.37756 l -1.0869,0.31724 1.05833,0.17462 c 1.92167,0.31671 3.24194,0.27252 3.39037,-0.1143 z m 17.99643,0.068 0.8382,-0.0315 -0.79375,-0.18018 c -0.92684,-0.21061 -1.71979,-0.0714 -1.71979,0.30216 0,0.14393 0.18838,0.1897 0.41857,0.10133 0.23019,-0.0884 0.7956,-0.17462 1.25677,-0.19182 z M 33.423819,170.58908 c 0.218281,-0.0884 0.573881,-0.16775 0.79031,-0.17648 1.888332,-0.0749 0.326496,-0.94059 -1.697037,-0.94059 h -2.268273 v 1.56263 l 1.389062,-0.14235 c 0.764117,-0.078 1.567657,-0.21431 1.785938,-0.30295 z m 184.858021,-0.14949 c 0.2249,-0.22463 -1.96532,-0.21961 -2.8104,0.007 -0.57071,0.15266 -0.58949,0.19314 -0.15716,0.34502 0.53101,0.18626 2.68472,-0.0688 2.96756,-0.35164 z m -12.58543,-1.56581 c 0.31221,0.0815 0.47307,0.28761 0.39132,0.5006 -0.0765,0.19923 -0.0167,0.36221 0.13282,0.36221 0.14975,0 0.18626,0.1487 0.0817,0.33073 -0.10477,0.18177 -0.0923,0.24183 0.0275,0.13309 0.42598,-0.3863 0.38338,-2.10291 -0.0482,-1.93755 -0.21617,0.0831 -0.62125,0.15081 -0.90038,0.15081 -0.43551,0 -0.50086,0.17807 -0.46117,1.25678 l 0.046,1.25677 0.10001,-1.09617 c 0.0863,-0.94562 0.17277,-1.07686 0.63024,-0.95727 z m -186.77705,1.06125 c 0.06482,-0.45614 0.28575,-0.61463 0.944563,-0.67813 0.810418,-0.0783 0.859896,-0.14287 0.859896,-1.12448 v -1.04166 h 1.190625 c 1.146439,0 1.190625,-0.0294 1.190625,-0.79375 0,-0.78581 -0.01482,-0.79375 -1.455209,-0.79375 -1.375833,0 -1.455208,0.036 -1.455208,0.66146 0,0.65008 -0.03625,0.66145 -2.101056,0.66145 -2.427288,0 -2.322513,-0.0982 -2.188369,2.05053 l 0.103187,1.65364 h 1.41314 c 1.264179,0 1.4224,-0.0627 1.497806,-0.59531 z m 154.90878,-0.26458 c -0.0733,-0.18204 -0.13335,-0.0331 -0.13335,0.33072 0,0.36381 0.0601,0.51277 0.13335,0.33073 0.0736,-0.18203 0.0736,-0.47969 0,-0.66145 z m 24.16651,-4.60825 c 0,-3.00726 -0.0638,-5.40412 -0.14182,-5.32607 -0.19737,0.19738 -0.42809,10.24943 -0.24235,10.55027 0.34343,0.55562 0.38417,0.001 0.38417,-5.2242 z m 2.07037,0.0947 c -0.0513,-5.64489 -0.17198,-5.13504 -0.27993,1.18136 -0.0389,2.27833 0.0185,4.08702 0.12779,4.01929 0.10901,-0.0677 0.17754,-2.40798 0.15214,-5.20065 z m 1.06997,-1.32292 c 0.0225,-1.84759 -0.059,-2.80194 -0.22992,-2.69637 -0.16299,0.10054 -0.24818,1.96162 -0.22172,4.84426 0.0468,5.12418 0.38311,3.52504 0.45164,-2.14789 z m -2.1246,1.33853 c -0.0378,-4.46352 -0.0667,-4.78235 -0.23522,-2.57969 -0.36592,4.78816 -0.29474,7.67292 0.18971,7.67292 0.0484,0 0.0688,-2.29182 0.0452,-5.09323 z m -35.80845,4.45743 c 1.18322,-0.25955 1.46368,-0.40084 1.10173,-0.55483 -0.48816,-0.20743 -3.13955,0.25929 -3.87985,0.68263 -0.61198,0.35057 0.9189,0.27993 2.77812,-0.1278 z m 28.37657,0.18177 c -0.40005,-0.0608 -1.0549,-0.0608 -1.45521,0 -0.40005,0.0606 -0.0728,0.11007 0.7276,0.11007 0.80037,0 1.12792,-0.0495 0.72761,-0.11007 z m 16.67933,-2.11402 c 0.0667,-1.88727 0.14367,-2.18678 0.59954,-2.33151 0.50615,-0.1606 0.52044,-0.39502 0.45244,-7.35647 l -0.0704,-7.19085 -1.25677,-0.0807 -1.25677,-0.0807 v 8.32062 c 0,7.29985 0.0508,8.34019 0.41328,8.47937 0.33126,0.127 0.37703,0.4011 0.23072,1.37715 -0.16484,1.09935 -0.13415,1.20915 0.31432,1.12342 0.43021,-0.082 0.50721,-0.38602 0.57362,-2.26033 z m -102.9335,1.84944 c -0.40005,-0.0609 -1.05489,-0.0609 -1.45521,0 -0.40005,0.0606 -0.0728,0.11007 0.72761,0.11007 0.80036,0 1.12791,-0.0495 0.7276,-0.11007 z m 83.3755,-8.82571 c -0.003,-6.83683 -0.0701,-8.44735 -0.35375,-8.44735 -0.33179,0 -0.7784,16.64414 -0.46355,17.27703 0.6305,1.26709 0.82021,-0.78237 0.8173,-8.82968 z m 29.93231,5.15673 c 0,-2.75749 -0.077,-3.56843 -0.33073,-3.48403 -0.54028,0.17939 -0.61224,7.07787 -0.0738,7.07787 0.34317,0 0.40455,-0.54531 0.40455,-3.59384 z m -33.02926,3.06388 c 0.077,0.23045 0.20929,0.20108 0.46143,-0.1024 0.30957,-0.37306 0.26723,-0.42598 -0.34051,-0.42598 -0.48578,0 -0.69242,0.13865 -0.68977,0.46303 0.003,0.36247 0.0537,0.3847 0.23283,0.10239 0.17119,-0.27041 0.25532,-0.27967 0.33602,-0.037 z m -17.70459,-0.45085 c 1.52929,-0.28919 0.64267,-0.62521 -1.45521,-0.55113 -1.27688,0.045 -2.1598,0.18653 -2.12725,0.34131 0.0699,0.33047 1.61607,0.64638 2.32569,0.47493 0.29104,-0.0701 0.85645,-0.18944 1.25677,-0.26511 z m 3.31046,0.26987 c -0.25294,-0.0661 -0.72919,-0.0688 -1.05833,-0.005 -0.32914,0.0632 -0.12224,0.11748 0.45985,0.12039 0.58208,0.003 0.85143,-0.0489 0.59848,-0.1151 z m 18.58381,-8.1526 c 0,-5.37978 -0.0937,-8.33438 -0.26459,-8.33438 -0.17065,0 -0.26458,2.9546 -0.26458,8.33438 0,5.37977 0.0937,8.33437 0.26458,8.33437 0.17066,0 0.26459,-2.9546 0.26459,-8.33437 z m 3.96875,6.77783 c 0,-1.75102 -0.14949,-1.87246 -2.31511,-1.87934 l -1.12448,-0.004 v 3.43958 h 3.43959 z M 32.100902,167.6199 c 0,-0.99959 -0.04419,-1.05833 -0.79375,-1.05833 -0.67019,0 -0.79375,-0.10292 -0.79375,-0.66146 0,-0.64664 -0.04418,-0.66146 -1.984375,-0.66146 h -1.984375 v -1.85208 h -1.455208 c -1.634332,0 -1.627982,-0.0119 -1.288521,2.46433 l 0.166687,1.2155 1.486959,0.0783 c 1.403085,0.0741 1.49172,0.11932 1.570566,0.80592 l 0.08387,0.7276 h 4.991894 z m 2.645834,0.81042 c 0,-0.13652 0.416718,-0.18044 0.926041,-0.0979 0.924454,0.15029 0.926042,0.14896 0.930011,-0.8763 0.005,-1.24698 0.332845,-1.82059 1.041135,-1.82059 2.106083,0 0.157163,-0.54293 -2.169583,-0.60431 l -2.844271,-0.0751 v 3.72215 h 1.058333 c 0.582084,0 1.058334,-0.11165 1.058334,-0.24791 z m 137.583334,-1.97008 c 0,-2.05899 -0.8599,-2.79427 -1.15835,-0.9906 -0.34025,2.05687 -0.22489,2.67943 0.49689,2.67943 0.63659,0 0.66146,-0.0638 0.66146,-1.68883 z m -165.2322925,0.6305 c -0.08996,-0.14552 0.08176,-0.26459 0.381265,-0.26459 0.307975,0 0.544777,-0.1725 0.544777,-0.39687 0,-0.48234 -0.23204,-0.49213 -1.591733,-0.068 -1.32768,0.4146 -1.393296,0.99404 -0.112448,0.99404 0.560387,0 0.875506,-0.10716 0.778139,-0.26458 z M 168.6259,166.95847 c 0,-0.32174 -0.42624,-0.39688 -2.24896,-0.39688 -1.82271,0 -2.24896,0.0751 -2.24896,0.39688 0,0.32173 0.42625,0.39687 2.24896,0.39687 1.82272,0 2.24896,-0.0751 2.24896,-0.39687 z m 18.65313,-6.94637 v -7.34113 l -1.19063,-0.078 -1.19062,-0.0778 0.0556,7.35382 c 0.0304,4.04469 0.0601,7.38373 0.0661,7.42024 0.006,0.0365 0.51647,0.0656 1.13507,0.0651 l 1.12448,-0.001 z m 18.9177,5.22657 c 0,-0.85592 -0.11906,-1.62983 -0.26458,-1.71979 -0.16669,-0.10318 -0.26458,0.53182 -0.26458,1.71979 0,1.18798 0.0979,1.82298 0.26458,1.7198 0.14552,-0.09 0.26458,-0.86387 0.26458,-1.7198 z m -83.07916,0.79375 c -0.21828,-0.14102 -0.75406,-0.25664 -1.19063,-0.25664 -0.60907,0 -0.70114,0.0598 -0.39687,0.25664 0.21828,0.14103 0.75406,0.25665 1.19062,0.25665 0.60907,0 0.70115,-0.0598 0.39688,-0.25665 z m -91.281251,-1.32291 v -1.32292 h -1.058334 c -0.881856,0 -1.058333,-0.0881 -1.058333,-0.52917 0,-0.76755 -0.996156,-0.70802 -1.105958,0.0661 -0.06006,0.42281 -0.291307,0.61913 -0.797719,0.6776 -1.598084,0.18442 -0.502179,0.84376 1.402821,0.84376 h 1.823773 v 0.79375 c 0,0.52916 0.132291,0.79375 0.396875,0.79375 0.299773,0 0.396875,-0.32332 0.396875,-1.32292 z m 136.789581,0.92604 c 0,-0.32173 -0.42624,-0.39688 -2.24896,-0.39688 -1.82271,0 -2.24896,0.0751 -2.24896,0.39688 0,0.32173 0.42625,0.39687 2.24896,0.39687 1.82272,0 2.24896,-0.0751 2.24896,-0.39687 z m 46.83125,0.15213 c 1.03108,-0.29897 -2.06772,-0.62997 -3.6277,-0.38761 -1.09326,0.17013 -1.17634,0.22331 -0.60563,0.38841 0.85381,0.24685 3.38137,0.24633 4.23333,-5.3e-4 z m 1.53511,-1.92828 c -0.0706,-1.22105 -1.38509,-2.36167 -1.96955,-1.70921 -0.58209,0.64956 -0.12065,2.45957 0.69902,2.74109 1.35811,0.46566 1.35732,0.46619 1.27053,-1.03188 z m -22.24458,0.92155 c -0.54901,-0.0572 -1.38244,-0.0564 -1.85208,0.002 -0.4699,0.0585 -0.0206,0.1053 0.99801,0.10424 1.01865,-0.001 1.40282,-0.0489 0.85407,-0.10636 z m 16.77035,-0.0751 c 1.20624,-0.33523 1.28773,-0.86519 1.29117,-8.39682 l 0.002,-5.35781 h -2.91042 v 7.01145 c 0,5.43349 0.0743,7.0112 0.33073,7.00988 0.18203,-8e-4 0.76068,-0.12092 1.2864,-0.2667 z m -42.89213,-0.50906 c 0,-0.56753 -0.17462,-0.59029 -2.84427,-0.37333 -2.70933,0.2204 -2.26192,0.88609 0.59531,0.88609 2.04841,0 2.24896,-0.0458 2.24896,-0.51276 z m 36.1778,-3.12526 c -0.0545,-0.69109 -0.099,-0.12568 -0.099,1.25677 0,1.38245 0.0445,1.94786 0.099,1.25677 0.0545,-0.69109 0.0545,-1.82245 0,-2.51354 z m -13.68822,-2.71198 c 0,-5.23293 -0.0556,-6.08542 -0.39687,-6.08542 -0.34131,0 -0.39688,0.85249 -0.39688,6.08542 0,5.23293 0.0556,6.08542 0.39688,6.08542 0.34131,0 0.39687,-0.85249 0.39687,-6.08542 z m 5.87799,3.24115 0.0751,-2.84428 0.69982,-0.081 c 1.93596,-0.22436 1.15173,-3.30041 -0.80883,-3.17288 l -1.21391,0.0788 -0.13229,4.20079 c -0.13943,4.42383 -0.11218,4.53734 1.11548,4.64608 0.10425,0.009 0.22331,-1.26338 0.26459,-2.8276 z m -4.94665,-9.27735 c -0.30295,-0.30269 -0.31962,0.30929 -0.16563,6.0362 l 0.16034,5.95312 0.0714,-5.92587 c 0.0392,-3.2594 0.009,-5.98778 -0.0661,-6.06345 z m -110.998001,8.16742 c 1.822185,-0.006 5.139267,0.61304 8.069792,1.50574 3.718454,1.13295 4.238625,1.08691 4.75271,-0.42069 1.708944,-5.01544 -1.693333,-11.0736 -4.864629,-8.66193 -0.305065,0.23178 -0.348456,0.17648 -0.228071,-0.2913 0.189442,-0.73554 -0.266435,-0.5797 -3.677708,1.25492 -2.551907,1.37239 -2.996407,1.51765 -2.989527,0.97631 0.0058,-0.4281 6.812227,-3.91319 7.630847,-3.90737 0.455878,0.003 0.58129,-0.10583 0.465932,-0.40587 -0.09022,-0.23548 -0.04577,-0.34158 0.103981,-0.24871 0.143933,0.0886 0.261673,0.0214 0.261673,-0.14975 0,-0.186 0.224102,-0.25241 0.558271,-0.16484 0.398991,0.10425 0.595577,0.004 0.687916,-0.34925 0.105834,-0.40349 0.247915,-0.45058 0.764646,-0.254 0.757767,0.28787 0.779992,0.19262 0.171979,-0.73713 -0.254793,-0.3892 -0.314325,-0.61621 -0.132291,-0.50403 0.184679,0.11377 0.330729,0.0799 0.330729,-0.0765 0,-0.15399 -0.09922,-0.28019 -0.220398,-0.28019 -0.257704,0 -0.227542,-0.96309 0.03863,-1.22926 0.100013,-0.10001 0.181769,-0.57282 0.181769,-1.05066 0,-0.54821 0.170921,-0.96837 0.463021,-1.1385 0.801423,-0.46672 0.221191,-0.31618 -2.877079,0.74692 -9.240573,3.17024 -9.441128,3.32237 -16.294894,12.38171 l -4.797954,6.34206 5.204883,-1.66688 c 3.169444,-1.01494 5.670815,-1.66846 6.395773,-1.67084 z m 113.175521,3.24273 c -0.2548,-0.0667 -0.67151,-0.0667 -0.92604,0 -0.2548,0.0664 -0.0463,0.12091 0.46302,0.12091 0.50932,0 0.71755,-0.0545 0.46302,-0.12091 z m -19.77761,-5.77083 v -5.42396 l -1.65364,5.3e-4 -1.65365,5.3e-4 -0.0222,5.42343 -0.0222,5.42343 h 3.35174 z m -5.82083,4.7625 c 0,-0.32173 -0.42624,-0.39687 -2.24896,-0.39687 -1.82271,0 -2.24896,0.0751 -2.24896,0.39687 0,0.32174 0.42625,0.39688 2.24896,0.39688 1.82272,0 2.24896,-0.0751 2.24896,-0.39688 z m 37.57083,-5.02708 v -5.15938 H 195.6134 v 2.44211 l 0.6522,-0.4273 c 0.91149,-0.59717 4.32329,-0.60537 4.55136,-0.0106 0.10716,0.27887 0.35613,0.36697 0.75512,0.26723 0.94721,-0.23813 1.2409,0.37676 1.03796,2.1717 -0.20373,1.79837 -0.14631,1.87086 1.68064,2.13227 l 1.24221,0.17754 -0.0855,0.99166 c -0.10265,1.19247 0.16881,2.57413 0.50562,2.57413 0.14023,0 0.24368,-2.19313 0.24368,-5.15938 z m -37.57083,3.70413 c 0,-0.32174 -0.42624,-0.39688 -2.24896,-0.39688 -1.82271,0 -2.24896,0.0751 -2.24896,0.39688 0,0.32173 0.42625,0.39687 2.24896,0.39687 1.82272,0 2.24896,-0.0751 2.24896,-0.39687 z m 48.74948,0.22172 c -0.18203,-0.0735 -0.47969,-0.0735 -0.66146,0 -0.18203,0.0733 -0.0331,0.13335 0.33073,0.13335 0.3638,0 0.51276,-0.0601 0.33073,-0.13335 z m -82.9654,-1.56845 c 1.49384,-1.10728 2.39607,-5.66473 1.12184,-5.66473 -0.78687,0 -2.60297,0.99854 -3.91848,2.1545 -1.04246,0.91546 -1.30942,1.0205 -2.59292,1.0205 -1.28164,0 -2.08386,0.25373 -3.22633,1.01997 -0.29686,0.19923 -0.22542,0.42994 0.37756,1.22052 l 0.74348,0.97472 3.3745,-0.0863 c 2.92682,-0.0749 3.47345,-0.15954 4.12062,-0.63923 z m 1.6682,0.22225 c -0.003,-0.26432 -0.0889,-0.34925 -0.20161,-0.19844 -0.10848,0.14552 -0.30533,0.35375 -0.43683,0.46302 -0.13176,0.10901 -0.041,0.19844 0.20135,0.19844 0.24527,0 0.43921,-0.20558 0.43709,-0.46302 z m 82.55397,-3.63802 v -4.10105 h -1.85208 v 8.20209 h 1.85208 z m -72.49583,3.43958 c -0.18124,-0.21828 -0.45667,-0.39688 -0.61225,-0.39688 -0.15531,0 -0.0516,0.17463 0.23098,0.38841 0.66358,0.50218 0.79322,0.50483 0.38127,0.008 z m 22.48958,-0.13229 c 0,-0.48763 -0.17648,-0.52917 -2.24896,-0.52917 -3.22924,0 -3.28533,0.73025 -0.0661,0.86148 1.20041,0.0489 2.21271,0.11325 2.24896,0.14288 0.0365,0.0296 0.0661,-0.18415 0.0661,-0.47519 z m 33.28697,-0.26088 c 0.1905,-0.002 0.27252,-0.12277 0.18282,-0.26829 -0.09,-0.14552 -1.12871,-0.26458 -2.30875,-0.26458 -1.17978,0 -2.06058,0.0844 -1.95765,0.18759 0.25135,0.25135 2.54476,0.5715 3.20807,0.44767 0.29104,-0.0545 0.68527,-0.10054 0.87551,-0.10239 z m -59.9784,-0.99589 c 0.0172,-0.2548 0.0172,-0.55219 0,-0.66146 -0.0175,-0.10901 0.2159,-0.19844 0.51805,-0.19844 0.61437,0 -0.27437,-0.89032 -1.56898,-1.57215 -0.61912,-0.32597 -0.62177,-0.32174 -0.43285,0.82073 0.20399,1.23402 0.39846,1.60232 0.57943,1.09697 0.0624,-0.17357 0.28205,-0.25109 0.48816,-0.17198 0.28099,0.10795 0.30745,0.26987 0.10583,0.64664 -0.18362,0.34343 -0.18203,0.50271 0.005,0.50271 0.15081,0 0.28787,-0.20823 0.30507,-0.46302 z m 52.18747,-1.17449 c 0.0939,-0.39211 0.0495,-0.78608 -0.0995,-0.87815 -0.14817,-0.0918 -0.20108,-0.27781 -0.11747,-0.41302 0.23415,-0.37888 -0.136,-0.29183 -0.55933,0.13177 -0.6358,0.63553 -0.52282,2.95698 0.11377,2.34421 0.27067,-0.26035 0.56885,-0.79349 0.66251,-1.18481 z m -0.88979,-0.1987 c 0,-0.63897 0.14711,-0.70326 0.35719,-0.15637 0.082,0.21352 0.0349,0.45879 -0.10425,0.54478 -0.13917,0.086 -0.25294,-0.0889 -0.25294,-0.38841 z m -24.60625,1.17501 c 0,-0.32173 -0.42624,-0.39687 -2.24896,-0.39687 -1.82271,0 -2.24896,0.0751 -2.24896,0.39687 0,0.32174 0.42625,0.39688 2.24896,0.39688 1.82272,0 2.24896,-0.0751 2.24896,-0.39688 z m 5.3e-4,-1.38906 c 5.3e-4,-0.41143 -0.25003,-0.45349 -2.24896,-0.37756 -3.26152,0.12436 -3.26231,0.84058 -5.3e-4,0.84058 1.96533,0 2.24896,-0.0582 2.24949,-0.46302 z m -5.3e-4,-1.38933 c 0,-0.48762 -0.17648,-0.52916 -2.24896,-0.52916 -3.13796,0 -3.30517,0.72496 -0.19843,0.86175 1.12791,0.0495 2.13995,0.11403 2.24895,0.1434 0.10928,0.0291 0.19844,-0.18494 0.19844,-0.47599 z m 24.90497,-0.79375 c 0.14393,0 0.19314,0.11086 0.10953,0.24607 -0.0839,0.13573 -0.0127,0.33284 0.15796,0.43815 0.22516,0.13943 0.26247,-0.0471 0.13547,-0.68104 -0.10319,-0.517 -0.0529,-1.01891 0.12356,-1.23164 0.2286,-0.27543 0.20452,-0.35904 -0.10319,-0.35904 -0.75909,0 -0.74163,-0.75406 0.0201,-0.87021 0.64585,-0.0987 0.63235,-0.11245 -0.14685,-0.14843 l -0.85989,-0.0397 0.036,1.91823 c 0.0198,1.05489 0.0876,1.6502 0.15081,1.32291 0.063,-0.32755 0.23231,-0.59531 0.37651,-0.59531 z m -147.814774,-0.054 c 0.945621,-0.4662 1.60655,-0.91758 1.468437,-1.00277 -0.38682,-0.23918 0.118269,-1.72614 0.574675,-1.69201 0.266965,0.0201 0.358511,-0.15558 0.284163,-0.54451 -0.09948,-0.52097 -0.01588,-0.56489 0.903552,-0.47546 0.732896,0.0714 0.906992,0.0257 0.629179,-0.16537 -0.211402,-0.14552 -0.499533,-0.19314 -0.640556,-0.10583 -0.141023,0.087 -0.02805,-0.1442 0.25056,-0.51382 0.278871,-0.36962 0.626798,-0.64532 0.772848,-0.61277 0.683684,0.15292 1.175279,0.48154 1.042194,0.69691 -0.08467,0.13679 -0.36486,0.12118 -0.660135,-0.037 -0.866511,-0.46355 -0.564092,0.11007 0.324643,0.61595 0.653521,0.37227 0.760942,0.38629 0.4953,0.0661 -0.356658,-0.42942 -0.103716,-0.5297 0.628121,-0.24871 0.229394,0.0878 0.351367,0.26644 0.270669,0.39687 -0.08043,0.13018 -0.08678,0.23681 -0.01402,0.23681 0.950119,0 -2.049727,-2.70484 -5.789612,-5.22023 -0.873125,-0.58711 -2.401094,-1.73646 -3.395398,-2.55376 -2.466975,-2.0283 -5.908675,-1.1602 -10.362936,2.61382 -2.16879,1.83753 -5.611813,4.36642 -5.944658,4.36642 -0.706438,0 -0.05768,-0.67998 2.456656,-2.57387 l 2.729703,-2.05635 -2.695046,-0.0201 c -2.016654,-0.0151 -3.455458,-0.20849 -5.715,-0.76782 -3.827462,-0.94773 -4.553214,-0.84296 -6.426994,0.92948 -2.711979,2.56461 -7.0717815,3.6457 -10.1766675,2.52307 -1.811337,-0.65458 -1.607344,-0.37465 1.608667,2.20795 l 2.9966695,2.40691 7.540625,-0.018 c 6.096265,-0.0145 7.755467,0.0585 8.662194,0.38233 0.683154,0.24394 2.194454,0.41751 3.868209,0.44423 l 2.746375,0.0439 1.55575,-1.26735 c 0.855927,-0.69692 1.556014,-1.36578 1.556014,-1.48617 0,-0.12038 0.05953,-0.19103 0.132292,-0.15663 0.07276,0.0344 0.569383,-0.2077 1.103312,-0.5379 0.654315,-0.40402 1.030288,-0.50535 1.151202,-0.30956 0.09896,0.16007 0.138113,0.31459 0.08731,0.34316 -0.05107,0.0286 -0.688181,0.53287 -1.415785,1.12025 -0.727605,0.58737 -1.890448,1.47108 -2.58445,1.96294 -1.58168,1.12184 -1.381125,1.34303 1.441979,1.58883 5.1435,0.44794 6.665118,0.34448 8.540221,-0.57997 z m 93.541054,0.58314 c -0.21828,-0.14102 -0.51594,-0.25664 -0.66146,-0.25664 -0.14552,0 -0.086,0.11562 0.13229,0.25664 0.21829,0.14102 0.51594,0.25665 0.66146,0.25665 0.14552,0 0.086,-0.11563 -0.13229,-0.25665 z M -6.0665655,154.78075 c 0.338666,-0.0767 0.595312,-0.0101 0.595312,0.15452 0,0.62177 12.907698,0.20505 14.354969,-0.46355 1.6345955,-0.75486 1.6168685,-0.81597 -0.79375,-2.75246 -3.113881,-2.50111 -4.541573,-3.96028 -5.096669,-5.20885 -1.415785,-3.18294 -4.490244,-2.43496 -7.408598,1.8026 -1.62216,2.35215 -1.881452,2.59821 -4.236244,4.01109 -1.3784795,0.82814 -2.8045835,1.72111 -3.1697085,1.98437 l -0.661458,0.47916 0.926041,0.15055 c 1.005417,0.16298 4.5270215,0.0622 5.4901055,-0.15743 z m 1.521618,-0.38999 c 0.08996,-0.14552 0.425979,-0.26273 0.743479,-0.26062 0.470959,0.003 0.505355,0.0521 0.182563,0.26062 -0.521229,0.33681 -1.132417,0.33681 -0.926042,0 z m 203.5979275,0.52916 c 0,-0.14552 -0.23812,-0.26458 -0.52916,-0.26458 -0.29104,0 -0.52917,0.11906 -0.52917,0.26458 0,0.14553 0.23813,0.26459 0.52917,0.26459 0.29104,0 0.52916,-0.11906 0.52916,-0.26459 z m -30.42708,-0.66145 c 0,-0.32174 -0.42624,-0.39688 -2.24896,-0.39688 -1.82271,0 -2.24896,0.0751 -2.24896,0.39688 0,0.32173 0.42625,0.39687 2.24896,0.39687 1.82272,0 2.24896,-0.0751 2.24896,-0.39687 z m 0,-1.32292 c 0,-0.32173 -0.42624,-0.39688 -2.24896,-0.39688 -1.82271,0 -2.24896,0.0751 -2.24896,0.39688 0,0.32173 0.42625,0.39687 2.24896,0.39687 1.82272,0 2.24896,-0.0751 2.24896,-0.39687 z M -9.3050655,151.88701 c 0.838729,-0.50404 1.568979,-0.96415 1.629833,-1.02288 1.256771,-1.2573 -4.6857715,-2.44555 -6.7389385,-1.34753 -2.180166,1.1647 -3.198812,1.11284 -5.199062,-0.26458 -1.698625,-1.16972 -1.947333,-1.17184 -3.608917,-0.0283 -0.735541,0.50509 -1.981729,1.1221 -2.772833,1.37134 -1.357313,0.42862 -1.436688,0.50006 -1.436688,1.33059 v 0.87762 h 16.60525 z M 163.59882,150.9644 c 0,-0.57758 0.15081,-0.78713 0.65749,-0.9144 0.48286,-0.12118 0.64108,-0.32147 0.59531,-0.753 -0.0746,-0.70644 0.83211,-0.90937 3.43641,-0.77047 1.55495,0.0831 1.66079,0.12965 1.66079,0.72761 0,0.46249 0.14605,0.63897 0.52916,0.63897 0.42519,0 0.52917,0.17647 0.52917,0.89773 0,1.05013 0.29633,1.21893 2.13836,1.21893 h 1.30122 l 0.0458,-1.38906 c 0.0251,-0.76385 0.0384,-1.77588 0.0291,-2.24896 -0.0148,-0.77126 0.0609,-0.85989 0.73131,-0.85989 0.65008,0 0.75856,-0.11219 0.83079,-0.85937 0.1651,-1.71186 7.09427,-2.12275 7.09427,-0.42069 0,0.84138 0.32333,1.28006 0.94377,1.28006 0.5969,0 0.62548,0.0892 0.6993,2.18281 l 0.0767,2.18281 1.25677,0.0807 c 0.69109,0.0442 1.25677,-0.0302 1.25677,-0.16536 0,-0.13547 0.35719,-0.3175 0.79375,-0.40482 0.77629,-0.15531 0.79375,-0.19394 0.79375,-1.74783 0,-1.87537 0.20373,-1.99761 2.95328,-1.77139 0.92233,0.0762 1.94468,0.14579 2.27224,0.15531 0.54927,0.0159 0.59531,0.13944 0.59531,1.60443 0,1.19328 0.0931,1.5875 0.37492,1.5875 0.20611,0 0.41883,0.13256 0.47307,0.29475 0.0672,0.20161 1.7489,0.30798 5.31363,0.33602 l 5.21546,0.0415 v -0.86519 c 0,-0.67124 0.11192,-0.86545 0.49821,-0.86545 0.27597,0 0.56013,-0.23627 0.63686,-0.52917 0.12964,-0.4953 0.36089,-0.52916 3.62743,-0.52916 3.26655,0 3.4978,0.0339 3.62744,0.52916 0.10398,0.39767 0.36089,0.52917 1.03373,0.52917 0.81809,0 0.89508,0.0683 0.89508,0.79375 0,0.74957 0.0587,0.79375 1.05834,0.79375 h 1.05833 V 99.622007 H -27.431671 v 50.774603 l 1.217084,-0.36592 c 0.669396,-0.20135 1.939396,-0.85064 2.820458,-1.44251 1.944688,-1.30704 1.973792,-1.3081 3.730625,-0.14076 2.100792,1.39436 2.926292,1.43881 5.349875,0.28813 2.547938,-1.21047 2.764896,-1.20015 4.9847505,0.23681 2.497667,1.61845 2.772833,1.57824 4.130146,-0.60087 3.029744,-4.85511 6.98791,-5.94784 8.661664,-2.38998 1.566863,3.33375 9.3437595,3.29247 12.8952625,-0.068 2.288381,-2.16509 3.693847,-2.41248 7.276041,-1.28032 1.645973,0.52043 2.548467,0.62759 5.291667,0.62838 l 3.307292,0.001 2.778125,-1.39038 c 1.527969,-0.76465 3.192992,-1.62798 3.699933,-1.91823 1.412875,-0.80883 3.062552,-0.40429 4.369859,1.07156 0.291041,0.32861 1.04775,0.92975 1.681956,1.33615 l 1.152525,0.73871 1.230841,-0.48524 c 0.677334,-0.2667 1.735667,-0.74824 2.352146,-1.06945 1.379273,-0.71887 2.154238,-0.51805 4.016375,1.04087 2.780771,2.32834 2.916238,2.24499 3.843867,-2.36458 1.996546,-9.92055 6.662208,-19.38946 10.420879,-21.15 1.724025,-0.80751 2.25425,-1.92881 1.178719,-2.49237 -0.978958,-0.51303 -0.525727,-0.62071 2.083858,-0.49477 2.29235,0.11059 2.775479,0.44608 1.691481,1.17475 -0.447145,0.30083 0.112448,0.97684 1.412875,1.70735 1.408907,0.79137 1.728523,1.15173 3.760523,4.24022 2.217738,3.37132 9.588236,9.5877 11.381582,9.59961 0.384704,0.003 0.766498,0.17965 0.848254,0.39317 0.34925,0.91017 7.296944,3.76608 12.537018,5.15408 0.61595,0.16299 1.23772,0.51647 1.38165,0.78529 0.40984,0.7657 1.05199,0.86889 1.79097,0.2876 1.09987,-0.86519 2.61011,-0.72179 3.23585,0.30744 0.2802,0.46038 0.85117,0.98108 1.26921,1.15676 0.41804,0.17595 2.5355,2.21007 4.70535,4.52067 l 3.94573,4.20079 22.09959,0.13229 c 24.67742,0.14764 22.49646,0.22331 22.49646,-0.78052 z m 5.02708,0.38391 c 0,-0.65352 -0.0265,-0.66145 -2.24896,-0.66145 -2.2225,0 -2.24896,0.008 -2.24896,0.66145 0,0.65352 0.0265,0.66146 2.24896,0.66146 2.2225,0 2.24896,-0.008 2.24896,-0.66146 z m 21.09391,-2.04575 c -0.059,-0.47546 -0.10848,-0.15029 -0.1098,0.72284 -0.002,0.87312 0.0466,1.26206 0.10715,0.86466 0.0603,-0.39767 0.0614,-1.11205 0.003,-1.5875 z m 26.00192,1.79652 c 0.21829,-0.0476 -0.22833,-0.10002 -0.99218,-0.11695 -0.76412,-0.0169 -1.38907,0.0646 -1.38907,0.18071 0,0.19129 1.37928,0.15425 2.38125,-0.0635 z m -24.60625,-1.22793 c 0,-0.95833 -0.0952,-1.3134 -0.33072,-1.23534 -0.49213,0.16324 -0.53632,2.58021 -0.0474,2.58021 0.27808,0 0.37809,-0.3556 0.37809,-1.34487 z m -135.535982,-0.0736 c 0.179917,-0.17251 0.429948,-0.86175 0.554831,-1.53114 l 0.227542,-1.21762 -0.967846,-0.42703 c -0.532606,-0.23495 -1.659731,-0.96414 -2.505075,-1.62058 -1.817952,-1.41155 -2.145242,-1.43483 -4.337314,-0.30691 l -1.673225,0.86042 3.048793,2.43708 c 1.676665,1.34038 3.116792,2.54741 3.2004,2.68235 0.164836,0.26696 1.909498,-0.35693 2.451894,-0.87657 z m 136.590352,-0.4998 c 0.002,-0.40005 -0.11509,-0.7276 -0.26062,-0.7276 -0.14552,0 -0.26273,0.50615 -0.26061,1.12448 0.003,0.82338 0.0728,1.01838 0.26061,0.7276 0.14103,-0.21828 0.25824,-0.72416 0.26062,-1.12448 z m 21.43522,0.59505 c 0,-0.32464 -4.40399,-0.32464 -5.15938,0 -0.34131,0.14684 0.47969,0.23389 2.31511,0.24606 1.73222,0.0114 2.84427,-0.0849 2.84427,-0.24606 z m -46.30209,-0.39687 c 0,-0.27729 -0.2794,-0.39688 -0.92604,-0.39688 -0.64664,0 -0.92604,0.11959 -0.92604,0.39688 0,0.27728 0.2794,0.39687 0.92604,0.39687 0.64664,0 0.92604,-0.11959 0.92604,-0.39687 z m 1.91665,0.22119 c -0.18283,-0.0738 -0.26512,-0.24289 -0.18283,-0.37598 0.082,-0.13308 -0.10266,-0.24209 -0.4109,-0.24209 -0.30824,0 -0.49318,0.10901 -0.4109,0.24209 0.0823,0.13309 0,0.30216 -0.18256,0.37571 -0.18309,0.0741 0.0841,0.13415 0.59346,0.13415 0.50932,0 0.77655,-0.0603 0.59373,-0.13388 z m -107.159957,-8.382 c 0.07091,-5.25357 0.333375,-6.59183 0.959908,-4.89797 0.386292,1.04378 1.673225,-2.36537 3.493294,-9.25327 0.650081,-2.45983 1.401498,-3.55812 2.77495,-4.05474 0.940594,-0.34026 1.427692,-2.07619 0.582348,-2.07566 -4.313237,0.003 -10.146771,11.08393 -12.241477,23.25423 -0.905933,5.26336 -1.086908,4.91966 1.85129,3.51552 l 2.50825,-1.19856 z m 117.678727,5.81637 c 0,-0.24077 -0.49503,-0.41883 -1.49251,-0.53604 -1.62455,-0.19077 -1.82775,-0.12859 -1.59121,0.48815 0.21088,0.54954 3.08372,0.59399 3.08372,0.0476 z m 0.88953,-0.0365 c -0.0839,-0.21828 -0.19923,-0.39687 -0.25638,-0.39687 -0.0572,0 -0.10398,0.17859 -0.10398,0.39687 0,0.21828 0.11536,0.39688 0.25638,0.39688 0.14076,0 0.18785,-0.1786 0.10398,-0.39688 z M 68.613402,143.00838 c 0.800365,-0.3982 2.145242,-0.92207 2.988469,-1.16416 l 1.53326,-0.43974 -0.13626,-1.51051 c -0.07488,-0.83079 -0.205846,-2.45136 -0.291042,-3.60124 -0.09075,-1.22291 -0.478366,-3.06414 -0.933979,-4.43574 -0.428625,-1.28984 -0.779198,-2.5744 -0.779198,-2.85459 0,-0.28046 -0.127,-0.58817 -0.282575,-0.68421 -0.15531,-0.096 -0.262466,-0.54954 -0.23786,-1.0078 0.152135,-2.82972 0.0344,-3.34672 -0.761471,-3.34672 -1.164696,0 -1.582738,0.72126 -2.70801,4.67096 -0.574146,2.0148 -1.537759,5.12657 -2.141538,6.91488 -0.732896,2.17038 -1.00965,3.33931 -0.832908,3.51632 0.177006,0.17674 -0.01773,1.11892 -0.585788,2.83368 -0.468048,1.41314 -0.929216,3.00832 -1.024731,3.54489 l -0.174096,0.97526 2.456392,-1.34356 c 1.350698,-0.73898 3.110971,-1.66952 3.911335,-2.06772 z m 111.062028,2.99853 c -0.25294,-0.0661 -0.72919,-0.0688 -1.05833,-0.005 -0.32914,0.0632 -0.12224,0.11747 0.45984,0.12038 0.58209,0.003 0.85143,-0.0489 0.59849,-0.11509 z m -88.704736,-1.8169 c 2.328333,-0.82021 4.9657,-1.7264 5.86105,-2.01401 1.563687,-0.50218 2.42226,-1.40626 1.592792,-1.67745 -0.170392,-0.0556 -1.667934,-0.47096 -3.3274,-0.92234 -1.659732,-0.45138 -3.225536,-0.93239 -3.480065,-1.06839 -0.41275,-0.22119 -0.447675,-0.136 -0.323321,0.79031 0.27305,2.03597 0.01164,2.39263 -1.754981,2.39263 -1.738842,0 -1.875367,-0.13732 -1.875367,-1.88648 0,-0.78846 0.169863,-1.2065 0.683419,-1.68249 l 0.683154,-0.63341 -1.410758,-0.70908 c -0.776023,-0.39026 -2.125398,-1.20571 -2.998523,-1.81187 -0.873125,-0.60642 -1.72429,-1.18666 -1.891242,-1.28958 -0.167216,-0.10292 0.08705,0.9734 0.564621,2.39157 0.477573,1.41817 1.259681,4.22434 1.738313,6.2357 0.712787,2.99773 0.944827,3.63167 1.287197,3.51631 0.229923,-0.077 2.322778,-0.81147 4.651111,-1.63142 z m 3.96875,-0.38259 c 0.206904,-0.33496 -0.143404,-0.33496 -0.661458,0 -0.342107,0.22093 -0.334963,0.25691 0.05053,0.26062 0.246062,0.002 0.521229,-0.11509 0.610923,-0.26062 z m 2.461683,-0.71913 c 0.626534,-0.21934 1.085586,-0.45191 1.020763,-0.517 -0.211932,-0.21167 -3.085571,0.73687 -3.085571,1.01865 0,0.15663 0.198437,0.19314 0.463021,0.0855 0.254793,-0.10372 0.975518,-0.36777 1.601787,-0.58738 z m 6.931023,-0.4109 c 0.23337,-0.0889 0.10054,-0.15981 -0.32252,-0.17198 -0.55166,-0.0159 -0.68184,0.0767 -0.55828,0.3982 0.0884,0.23045 0.23337,0.30771 0.32227,0.17198 0.0889,-0.136 0.34025,-0.31512 0.55853,-0.3982 z m 4.49792,0.0542 c 0,-1.27503 -1.6981,-1.74731 -2.84427,-0.79111 -0.83608,0.69745 -0.77179,0.76862 0.79375,0.87816 0.76412,0.0534 1.53802,0.11906 1.71979,0.14605 0.18203,0.027 0.33073,-0.0781 0.33073,-0.23284 z m -8.27352,-1.10702 c 0.16139,0.46223 0.6006,0.41407 0.6006,-0.0662 0,-0.21828 -0.22833,-0.39687 -0.50747,-0.39687 -0.27913,0 -0.725751,-0.0706 -0.992186,-0.15717 -0.38444,-0.12488 -0.406136,-0.1016 -0.104775,0.11192 0.328083,0.23284 0.328877,0.33523 0.0045,0.75274 -0.312209,0.4019 -0.269346,0.39423 0.254,-0.046 0.450321,-0.37862 0.662521,-0.43497 0.745071,-0.19844 z m 2.40903,0.15822 c 0.46117,-0.12356 0.52811,-0.22225 0.26458,-0.3892 -0.56541,-0.35851 -1.27926,-0.26643 -1.27926,0.16484 0,0.43973 0.11483,0.46513 1.01468,0.22436 z m -12.295982,-1.01807 c 0.122767,-0.32015 -0.102658,-0.39688 -1.162315,-0.39688 -1.22211,0 -1.568185,0.18786 -1.138237,0.61727 0.354542,0.35481 2.145771,0.18336 2.300552,-0.22039 z m 7.047971,-1.42743 c -1.67349,-0.54346 -4.101042,-1.48643 -5.394325,-2.0955 -2.745317,-1.29249 -2.543175,-1.24619 -2.543175,-0.58473 0,0.71067 0.808567,1.07632 5.159375,2.33362 5.918196,1.70948 7.635346,1.92379 2.778125,0.34661 z m -7.067021,-0.29237 c -0.121708,-0.46566 -2.193396,-0.86095 -2.193396,-0.41857 0,0.0609 -0.07223,0.29898 -0.160602,0.52917 -0.13335,0.3474 0.06509,0.41857 1.165754,0.41857 1.196182,0 1.312863,-0.0519 1.187979,-0.52917 z m -1.399646,-2.7342 c 0,-0.47863 -0.460375,-0.91731 -2.050521,-1.95368 -1.127918,-0.73475 -3.005137,-2.15371 -4.171685,-3.15278 -1.166813,-0.99906 -2.342356,-1.99231 -2.61276,-2.20715 -0.332582,-0.26432 -0.144198,0.2921 0.582083,1.71979 1.135062,2.23176 2.430727,3.32211 6.501606,5.47132 1.671108,0.88238 1.751277,0.88794 1.751277,0.1225 z M 74.135786,123.52076 c -0.323321,-0.39423 -0.297921,-0.42598 0.232833,-0.28919 l 0.595842,0.15346 -0.517525,-0.72628 c -0.710407,-0.99774 -1.260475,-1.41843 -1.589353,-1.21523 -0.328083,0.2024 0.03863,1.02076 0.862013,1.92484 0.627856,0.68924 0.954881,0.8091 0.41619,0.15267 z m -1.93675,-3.98886 c -0.02884,-0.86598 -2.262717,-1.88065 -2.262717,-1.02764 0,0.20426 1.550458,1.69651 1.915583,1.84388 0.183356,0.0738 0.343959,0.14367 0.356923,0.15505 0.01297,0.0114 0.0087,-0.42545 -0.0095,-0.97129 z m -1.601259,0.46302 c -0.08996,-0.14552 -0.282575,-0.26458 -0.428096,-0.26458 -0.14552,0 -0.191029,0.11906 -0.10107,0.26458 0.08996,0.14553 0.282575,0.26459 0.428095,0.26459 0.145521,0 0.19103,-0.11906 0.101071,-0.26459 z"
       style="opacity:0.5;fill:#8c8c8c;fill-opacity:1;stroke-width:0.264583"
       id="path1" />
  </g>
</svg>
